<?xml version="1.0" encoding="utf-8"?>
<!-- Generator: Adobe Illustrator 24.2.3, SVG Export Plug-In . SVG Version: 6.00 Build 0)  -->
<svg version="1.1" id="Camada_1" xmlns="http://www.w3.org/2000/svg" xmlns:xlink="http://www.w3.org/1999/xlink" x="0px" y="0px"
	 viewBox="0 0 2935.2 2484" style="enable-background:new 0 0 2935.2 2484;" xml:space="preserve">
<style type="text/css">
	.st0{opacity:0.33;fill:#3B97ED;enable-background:new    ;}
	.st1{fill:#FFFADF;}
	.st2{fill:#D9E7FC;}
	.st3{fill:#BFD3EF;}
	.st4{fill:#FFDFC2;}
	.st5{opacity:0.5;fill:#DCFFB4;enable-background:new    ;}
	.st6{fill:#DCFFB4;}
	.st7{fill:#699FF0;}
	.st8{fill:#4888E5;}
	.st9{fill:#ABE682;}
	.st10{fill:#7DB2FF;}
	.st11{fill:#3B7FD1;}
	.st12{fill:#A8D29F;}
	.st13{fill:#82B378;}
	.st14{fill:#FFB27D;}
	.st15{fill:#35488B;}
	.st16{fill:#2C3A64;}
	.st17{fill:#F99746;}
	.st18{fill:#150E00;}
	.st19{fill:#ED985F;}
	.st20{fill:#ED7D2B;}
	.st21{fill:#233862;}
	.st22{fill:#C94C43;}
	.st23{fill:#B23B38;}
	.st24{fill:#FFFFFF;}
	.st25{fill:#17AA00;}
	.st26{fill:#EDA920;}
	.st27{fill:#D68D5D;}
	.st28{fill:#E59A3E;}
	.st29{fill:#869F00;}
	.st30{fill:#2B478B;}
	.st31{fill:#52C42B;}
	.st32{fill:#48B346;}
	.st33{fill:#4A75CB;}
	.st34{fill:#E58638;}
	.st35{fill:#739AF0;}
	.st36{opacity:0.5;}
	.st37{fill:#F4A671;}
	.st38{fill:#EFCDAF;}
	.st39{fill:#E2B99A;}
	.st40{fill:#FFF3E9;}
	.st41{fill:#AFCDFB;}
	.st42{fill:#E57970;}
	.st43{fill:#D3671E;}
	.st44{opacity:0.4;fill:#D86713;enable-background:new    ;}
	.st45{fill:#F1A34F;}
	.st46{fill:#C95C12;}
	.st47{fill:#CADDFF;}
	.st48{fill:#F9DDBF;}
	.st49{fill:#E5C1A1;}
	.st50{fill:#B64C41;}
	.st51{fill:#963333;}
	.st52{fill:#B7D2F9;}
	.st53{fill:#F77D48;}
	.st54{fill:#739CF3;}
	.st55{fill:#415DA5;}
	.st56{fill:#FFA412;}
	.st57{opacity:0.5;fill:#EBF3FA;enable-background:new    ;}
	.st58{opacity:0.3;fill:#EBF3FA;enable-background:new    ;}
	.st59{fill:#EBF3FA;}
	.st60{fill:#754C29;}
	.st61{fill:#8B5E3C;}
	.st62{fill:#AFAFAF;}
	.st63{fill:#DC8D39;}
	.st64{fill:#ECF2FD;}
	.st65{fill:#E5EAF5;}
	.st66{opacity:0.3;fill:#CED4EA;enable-background:new    ;}
	.st67{fill:#CFCFCF;}
	.st68{fill:#DFDFDF;}
	.st69{fill:#C73ED7;}
</style>
<g id="Camada_2_1_">
	<g id="Слой_1">
		<path class="st0" d="M2280.6,2487.6c-11.1,9.2-21.8,1.6-144.1-3.6c-110.5-4.8-173.1-1.7-275.7,0c-93.9,1.5-175,0.9-747.6,0
			c-281.4-0.5-422.1-0.7-444.3,0c-124.6,3.8-249.6-7.6-373.9,1.8c-1.4,0.1-66.6,4.9-151.3-8.5c-57-9-85.7-13.4-99.9-30.5
			c-56.4-68.1,112-288.2,132-314c0,0,0,0,0,0c245.8-227.9,290.3-405.3,285.2-525.5c-6.7-156.4-70.1-217.6-57.1-356.4
			C427.7,998,706.7,774.8,879.8,735.4C1534.9,586.3,2416.8,2374.8,2280.6,2487.6z"/>
		<path class="st1" d="M1455.6,1865.4h309.7c4.1,0,7.5,3.3,7.5,7.5v23.8c0,4.1-3.3,7.5-7.5,7.5h-309.7c-4.1,0-7.5-3.3-7.5-7.5v-23.8
			C1448.1,1868.8,1451.4,1865.4,1455.6,1865.4z"/>
		<path class="st2" d="M1526.8,1904.1l-3.9,22.6l-55.8,327.7c-0.4,1.3-1.6,2.1-2.9,2c-2.9,0-5.1-1.9-4.8-4.1l44.3-335.6l1.7-12.7
			L1526.8,1904.1z"/>
		<path class="st3" d="M1526.8,1904.1l-3.9,22.6c-2.7-9-19.3-10-19.3-10l1.7-12.7L1526.8,1904.1z"/>
		<path class="st1" d="M1756.7,2482.5c-1.5,0-2.8-1.4-2.9-3.3l-55.8-537.9l-2.4-23.2l-1.4-14h21.4l1.7,20.8l1.3,16.3l43,534.5
			C1761.8,2479.4,1759.5,2482.5,1756.7,2482.5z"/>
		<path class="st4" d="M1718.5,1941.3c-5.5-17.7-23-23.1-23-23.1l0,0l-1.4-14h21.4l1.7,20.8L1718.5,1941.3z"/>
		<path class="st5" d="M1482.9,1705.5c0,0,108.7-160.9,249.2-218c18.7-7.6,36.6,12.6,27,30.3l-0.5,0.9
			C1741.8,1548.7,1577,1627.1,1482.9,1705.5z"/>
		<path class="st5" d="M1447,1749.1c0,0,197.8-169.3,396.2-187.1c12.1-1.1,23.4,7.4,24.9,19.4c1,7.8-1.9,17.8-13.6,29.7
			C1823.1,1642.7,1591.1,1683.7,1447,1749.1z"/>
		<path class="st6" d="M830.2,1445.3c0,0-76.8-89.8-87.5-181.4c-1.4-12.2,13.3-19.4,22.1-10.9l0.4,0.4
			C780.2,1268.1,799.5,1377.4,830.2,1445.3z"/>
		<path class="st6" d="M850,1473.4c0,0-67.2-143.4-45.6-262.5c1.3-7.3,8-12.4,15.4-11.4c4.8,0.7,10.1,4,15.2,12.8
			C848.4,1235.6,834.9,1378.3,850,1473.4z"/>
		<path class="st6" d="M1227.3,868.1c-50.6-54.8-147.9,21.3-147.9,21.3s-14.9,149.8-34.8,163.6s-12.2-130.6-12.2-130.6
			c-43.3,17.5-122,122.8-122,122.8s74.6,126.9,51.9,135.3S902,1064.7,902,1064.7c-33.7,32.8-46.7,98.7-46.7,98.7
			c-7,100.1,121.8,103.9,121.8,103.9s24.9,44.5,24,111l0,0c0,0-1.3,12.9,0.8,32.5l10.9-5.7c-0.6-3.4-1.1-6.7-1.4-10c0,0,0,0,0-0.1
			c0,0,0-0.1,0-0.1c-0.1-2.1-0.3-5-0.5-8.6l0,0l0,0c-0.1-8.2-0.3-14.2-0.7-18.4l0,0c-0.7-25.6-0.2-59.7,6.5-70.3
			c-1.8-1-3.5-2.3-4.9-3.8l4.9,3.8c39.4,30.2,136-11.7,182.3-49.3s16.1-40.5-24.2-49.7s-95.7,27.4-117.8,27.2s-1.7-22.8,34.2-38.1
			s71.3,10.2,129.9-13.6s46.4-151,46.4-151c-32.3,32.1-112.6,46.8-122.2,34.9s93.5-63.9,107.4-76.3S1277.9,922.9,1227.3,868.1z"/>
		<path class="st6" d="M1774.2,916.8c-71.6-82.3-217,24.8-217,24.8s-28.2,218.4-57.8,237.6S1487,987.8,1487,987.8
			c-64,23.7-183.6,174.3-183.6,174.3s103.6,188.6,70.1,200s-83.2-171.7-83.2-171.7c-50.6,46.5-72.4,142.3-72.4,142.3
			c-14.5,146,173.6,157.1,173.6,157.1s34.5,66.1,30.4,163.2l0,0c0,0-2.5,18.7-0.3,47.5l16.1-7.8c-0.8-5-1.4-9.8-1.7-14.7
			c0,0,0-0.1,0-0.1c0-0.1,0-0.1,0-0.2c-0.1-3-0.2-7.3-0.3-12.6l0,0l0,0c0.3-12,0.1-20.8-0.3-27c0,0,0,0,0-0.1
			c0.1-37.5,2.2-87.3,12.4-102.4c-2.6-1.6-4.9-3.5-7-5.7l7,5.7c56.3,45.8,199.2-11.3,268.5-64.4s25.2-58.5-33.3-73.7
			s-140.8,36.2-173.2,34.8s-1.6-33.4,51.7-54.3s103.7,18,190.4-14.3s74.3-218.8,74.3-218.8c-48.6,45.5-166.5,63.7-180,45.8
			s139.4-89.5,160.2-106.9S1845.8,999,1774.2,916.8z"/>
		<path class="st6" d="M2,1315.3c12.7-106.7,190.6-100.2,190.6-100.2s144,162.3,178.9,161.5s-96.1-162.8-96.1-162.8
			c65.3-16.2,246.2,40.2,246.2,40.2s20.2,211.1,53.7,201.8s-27.4-186-27.4-186c67,9.8,137.9,75.8,137.9,75.8
			c92.8,110.8-54.3,224.3-54.3,224.3s8.6,73,65.7,149.8l0,0c0,0,12.4,13.9,26.6,38.6l-17.5,2.6c-2.1-4.5-4.4-8.8-6.8-12.9
			c0,0,0,0,0-0.1l-0.1-0.2c-1.6-2.5-3.9-6.1-6.7-10.5l0,0l0,0c-6.9-9.7-11.6-16.9-14.7-22.1l0,0c-20.8-30.5-50.2-69.9-66.9-76.6
			c1.2-2.7,2.1-5.6,2.6-8.6l-2.6,8.6c-20.5,68.6-168.6,101.3-254.5,96.4s-53-33.7-13.7-78.5s134.8-48.6,160.4-67.6
			c25.6-19.1-17.2-28-72.2-15.6s-74.6,72.2-163.1,93.9S86,1530.1,86,1530.1c64.8,10.1,171-40.5,172.1-62.5s-163.2,4.4-189.8,1.7
			S-10.7,1422,2,1315.3z"/>
		<path class="st7" d="M1592.1,1914.3c0,34-3,67.9-9.1,101.4c-47.7,262.4-277.5,461.4-553.7,461.4c-229.7,0-427.3-137.6-514.8-334.9
			c-31.8-71.8-48.1-149.4-48-227.9c0-310.8,251.9-562.8,562.7-562.8c0.1,0,0.1,0,0.2,0c14.3,0,28.5,0.5,42.5,1.6
			c19.6,1.5,39.1,4,58.5,7.5C1397.9,1409.3,1592.2,1642.4,1592.1,1914.3L1592.1,1914.3z"/>
		<path class="st8" d="M1592.1,1914.3c0,34-3,67.9-9.1,101.4c-6.1,33.6-15.3,66.6-27.4,98.6c-80.6,212.1-285.8,362.9-526.2,362.9
			c-92.4,0.1-183.5-22.6-265-66.2c-7.3-3.9-14.4-7.9-21.5-12.1c-100.8-59.8-180.6-149.5-228.2-256.6c-11.6-26.2-21.2-53.3-28.7-80.9
			c63.6,15.2,163.9,31.5,284.2,23.8c20.9-1.3,42.4-3.4,64.4-6.3c85.3-11.2,168.6-34.1,247.7-68c204.7-87.8,342.5-263.7,422.7-397.4
			C1562.1,1703.4,1592.3,1807.8,1592.1,1914.3z"/>
		<path class="st9" d="M1592.1,1914.3c0,34-3,67.9-9.1,101.4c-22.9-3.3-52.8-6.6-71.2-4.4c-33.2,3.9-66.4,72.2-134.7,74.9
			s-152.2-49.5-242-14.4s-136.6-2-152.2-27.3s39-83.9,34.1-109.3s6.9-111.2,83-111.2s107.6-41.6,121-56.6
			c38.3-43,68.3-3.9,99.5-37.1s-23.4-91.7,0-130.8s138.6-48.5,138.6-48.5C1545.2,1652.5,1592.3,1781.3,1592.1,1914.3z"/>
		<path class="st9" d="M762.4,1818.7c-27.3,38.5,9.8,118.5-13.7,159.5s-68.3,33.2-101.5,52.7c-28.8,16.9-40.3,86.8-132.7,111.4
			c-48.3-109.7-60.6-231.9-35-348.9c18.9-19,44.7-36.1,79.9-45.4c111.2-29.3,114-111.2,158.9-112.7
			C827.7,1631.3,789.7,1780.2,762.4,1818.7z"/>
		<path class="st9" d="M1182,1606.3c0,0-68.3-13.7-105.4,9.8s-112.2,65.4-102.5,89.8s81,42.9,110.3,42s9.3-58.8,151.3-42
			C1271.6,1710.2,1272.2,1631.1,1182,1606.3z"/>
		<path class="st10" d="M1130.3,1360.5c-34.6,60.6-97.9,137.3-204.9,165c-129.1,33.4-238.8,9.3-294.4-8.9
			c105.5-105.8,248.8-165.3,398.3-165.2c14.3,0,28.5,0.5,42.5,1.6C1091.4,1354.5,1111,1357,1130.3,1360.5z"/>
		<path class="st11" d="M1555.5,2114.3c-80.6,212.1-285.8,362.9-526.2,362.9c-92.4,0.1-183.5-22.6-265-66.2
			c-7.3-3.9-14.4-7.9-21.5-12.1C888,2388.2,1250.5,2338.6,1555.5,2114.3z"/>
		<path class="st12" d="M857,2276c-29.9,21.8-37,88.7-56.1,98c-9.6,4.6-24.3,21.4-36.6,36.9c-77.4-41.4-144.1-100.3-194.7-172
			c33.8-23.4,97.1-63,141.1-64.1c0,0,22-0.3,38.2-44.9c6.4-17.6,13.3-33.2,21.3-44.9c12.3-18.1,27.1-27,46.7-19.9
			c7.3,2.4,13.5,7.3,17.7,13.7c11.4,16.9,12.1,43.8,44.1,69.7C921.8,2183.5,886.8,2254.3,857,2276z"/>
		<path class="st9" d="M1284.1,1519.8c0,0-5.9-105.8-136-124.2C1148.1,1395.6,1143.3,1519.8,1284.1,1519.8z"/>
		<path class="st9" d="M1278.3,1519.1c0,0,104.3,19.7,146.6-104.7C1424.8,1414.3,1304.4,1380.7,1278.3,1519.1z"/>
		<path class="st9" d="M1279.7,1474.9c0,0,46.3-37.5,8.4-100.7C1288.1,1374.2,1230,1413.5,1279.7,1474.9z"/>
		<path class="st9" d="M1278.3,1519.1c0,0-15.6,67.8-12.9,91.8h12.9c0,0-5-63.2,7.3-95L1278.3,1519.1z"/>
		<path class="st13" d="M1422.3,1685.4c0,0-2.8-50-64.4-58.8C1358,1626.7,1355.7,1685.4,1422.3,1685.4z"/>
		<path class="st13" d="M1419.6,1685.1c0,0,49.4,9.3,69.4-49.6C1488.9,1635.6,1431.9,1619.6,1419.6,1685.1z"/>
		<path class="st13" d="M1420.2,1664.2c0,0,21.9-17.7,4-47.7C1424.2,1616.6,1396.7,1635.2,1420.2,1664.2z"/>
		<path class="st13" d="M1419.6,1685.1c0,0-7.4,32.1-6.1,43.4h6.1c0,0-2.4-29.9,3.4-45L1419.6,1685.1z"/>
		<path class="st9" d="M1208,1565.6c0,0-1.8-31.4-40.4-36.9C1167.6,1528.7,1166.2,1565.6,1208,1565.6z"/>
		<path class="st9" d="M1206.3,1565.4c0,0,31,5.9,43.6-31.1C1249.8,1534.3,1214,1524.3,1206.3,1565.4z"/>
		<path class="st9" d="M1206.7,1552.3c0,0,13.8-11.1,2.5-29.9C1209.2,1522.3,1191.9,1534,1206.7,1552.3z"/>
		<path class="st9" d="M1206.3,1565.4c0,0-4.7,20.2-3.8,27.3h3.8c0,0-1.5-18.8,2.2-28.2L1206.3,1565.4z"/>
		<path class="st14" d="M1515.1,1493.2c0,0-10-2-12.3,0s-13.2,13-10.8,16.6s13.5-3,15.8-3.6s8.8-3.2,8.8-3.2L1515.1,1493.2z"/>
		<path class="st15" d="M1621.6,1847.4l10.7,4c0,0,46.7-64.7,52.4-121.6c1.1-9.7,0.6-19.6-1.5-29.1c0,0,0.4-2.6,1.3-7.2
			c0.4-2.2,0.8-4.7,1.3-7.7c1.5-8.7,3.6-20.6,6-34.1c5.5-31.2,12.6-71,18.1-100.3l-2.9-0.9l-31.3-10.1l-6.5-20.6l-23.3-6.1
			c0,0-5.2,10.2-9.9,58.3c-0.9,6.3-1.6,13.3-2.2,20.8c-2.1,28.1-1.4,56.3,2.2,84.3c1.1,8.4,2.4,17,4.1,25.9
			c1.2,6.5,1.4,15.4,0.9,25.6C1638.7,1775.1,1621.6,1847.4,1621.6,1847.4z"/>
		<path class="st16" d="M1633.8,1592.8l50.6,100.6c0.4-2.2,0.8-4.7,1.3-7.7c1.5-8.7,3.6-20.6,6-34.1c5.5-31.2,12.6-71,18.1-100.3
			l-2.9-0.9l-31.3-10.1l-6.5-20.6l-23.3-6.1c0,0-5.2,10.2-9.9,58.3C1635.2,1578.3,1634.4,1585.3,1633.8,1592.8z"/>
		<path class="st15" d="M1656.1,1526.6l1.2-10c19.6,5.2,72.1-14.6,72.1-14.6s19,16.7,16.5,56.8c-1.2,19.6-3.4,102.7-5.8,127.3
			c-0.8,8.9-1.6,15.3-1.9,17.8l0,0c-0.1,0.8,0.1,1.5,0.6,2.2c3.4,5.8,6.3,11.8,8.6,18.1c22.8,60.8-3.5,135.7-3.5,135.7l-6.8-2.8
			c0,0-15-83.4-27.2-120.2c-2.1-6.3-4-11.2-5.9-14.1c-5.3-8.5-10.2-22.5-14.7-39.1c-8.4-31.4-15.2-72.3-19.7-103.8
			C1669,1580,1656.1,1526.6,1656.1,1526.6z"/>
		<path class="st14" d="M1515.1,1493.2l1.5,9.8c0,0,0.7,0,1.8-0.1c3.6-0.2,12.3-0.7,22.1-1.8c14.8-1.5,32.3-4.1,39.3-8.4
			c10.7-6.5,28.1-26.4,39.5-46.3c0.3-0.5,0.6-1,0.8-1.5c5.9-10.6,10.1-21,10.4-29.4c0.3-4.5-0.2-9-1.4-13.3c-1.2-4.4-3.2-8.4-6-12
			c-0.3-0.5-0.7-1-1.1-1.4c-2.2-2.6-4.8-4.9-7.7-6.6c-2-0.8-4.1,0.2-6.3,2.5v0.1c-2.2,2.5-4.1,5.3-5.6,8.3c-0.1,0.1-0.2,0.2-0.2,0.3
			c-0.4,0.7-0.8,1.5-1.3,2.4c-0.1,0.2-0.2,0.4-0.3,0.6c-0.9,1.9-1.8,3.8-2.7,5.8c-10,21.8-20.6,54.8-29.5,64.6
			c-3.8,4.2-21.3,12.5-35.2,18.7C1523.3,1490,1515.1,1493.2,1515.1,1493.2z"/>
		<path class="st14" d="M1618.6,1404.7c7.1,3.2,14.8,5,22.6,5.3c33.8,1.8,41.4-27.7,42.8-47.4c-3.7-1.3-7.7-1.8-11.6-1.5
			c-2.4,0.1-4.9,0.4-7,0.6c-4.1-2.2-11.6-12.6-15.8-30.2l-1.4,0.7l-24.4,11.4c0,0,2.6,7.9,4.5,15.5c1.5,5.9,2.6,11.7,1.7,13.3
			c-1.9,0.8-3.1,1.3-3.1,1.3l0,0C1623.1,1383.8,1620.3,1394.2,1618.6,1404.7z"/>
		<path class="st17" d="M1610.1,1426.9c0.3,0.7,0.5,1.3,0.8,2c8.6,18.4,24.4,94.7,24.4,94.7c-2.3,13.7,103.1-2.7,103.3-15.2
			c3.7-13.2-13.2-34.5-22.7-45.2c-1.2-1.3-2.3-2.8-3.2-4.3c-2.4-3.8-3.8-8.1-4.3-12.6c-1.9-17.7-1.2-34.3-1.3-44.4l0,0
			c-1.8-1.4-3.7-2.7-5.3-3.9c-2.3-1.6-4.5-3.4-6.5-5.4c-1.7-1.6-2.9-3.8-3.1-6.1c-0.1-1.7,0-3.4,0.1-5.1c0.1-0.8,0.2-1.6,0.3-2.4
			c1-5.6,2.6-11.1,4.9-16.3c-9-3.7-25.2-1.5-25.2-1.5s0,0.9,0,2.4c0,5.9,0,21-1.9,23.8c-2.4,3.6-45.5,19.2-47.8,14.3
			s3.9-27,4.1-27.9l0,0c-14.4,5.7-19.6,10.4-19.6,10.4C1616,1389.9,1603.4,1409,1610.1,1426.9z"/>
		<path class="st18" d="M1639.2,1267.8c0-1.5,1.2-17.2,25.2-18.1c0,0-11.8,1.4-13.8,6.6c0,0,8-6.4,14.6-4.3s10.4,13.5,10.4,17.3
			s-3.6,15.9-7.8,17c-1.7,0.3-3.3,0.3-5,0c1.2,1.8,2.2,3.8,3.2,5.7c9.6,19.7-0.3,38.9-8.4,36.8c-5.2-1.4-6.7,7.5-6.7,7.5l-50.6-40.9
			C1600.3,1295.4,1618.9,1257,1639.2,1267.8z"/>
		<path class="st19" d="M1623.8,1343.8c0,0,2.6,7.9,4.5,15.5c14.2-4,18.6-18.9,19.9-27L1623.8,1343.8z"/>
		<path class="st14" d="M1620.8,1352.2c0,0,34.1-7.9,28.8-29s-4.4-36.4-26.3-32.3s-24.2,13.3-24.2,20.7S1611.8,1353.7,1620.8,1352.2
			z"/>
		<path class="st16" d="M1597.3,1299.6c3.7-7.7,8-7.3,10.7-5.9c16-14.8,31.7-2.7,31.7-2.7c3.8,8.9,10.6,16.1,19.1,20.6
			c0,0-5.2,5.4-20.4,5.2c-4.6,0-9.3-2.2-13.5-5.1c5.3,5.2,11.3,9.7,17.8,13.3c-19-3.6-31.7-25.6-33-27.9c-1.6,2.4-4.7,7.4-4.9,11.7
			c-0.4,5.8,1.6,17.1-1.7,17.5C1603,1326.2,1591.8,1311.1,1597.3,1299.6z"/>
		<path class="st17" d="M1607.3,1384.3c0,0-8.2,14.3-9.4,18c0,0,10.6-0.4,14.9,7.8C1612.8,1410,1613.8,1386.2,1607.3,1384.3z"/>
		<path class="st20" d="M1663.7,1497.9c20.8-0.2,38.3-21.8,49.1-39c-2.4-3.8-3.8-8.1-4.3-12.6c-1.9-17.7-1.2-34.3-1.3-44.4l0,0
			c-1.8-1.4-3.7-2.7-5.3-3.9c-2.3-1.6-4.5-3.4-6.5-5.4C1678.4,1421.4,1635.6,1498.2,1663.7,1497.9z"/>
		<path class="st14" d="M1585.2,1509.2l2.8,10.4l9.3-1.7c1.7-0.3,2.7-0.6,2.7-0.6c4.6-0.9,10-2.1,15.9-3.4h0.1
			c10.2-2.4,21.5-5.4,31.1-8.6c6.8-2.4,12.6-4.9,16.6-7.4c0.4-0.2,0.8-0.5,1.1-0.8c9.5-6.9,20.8-27.2,29.6-49c1.2-3,2.4-6,3.5-8.9
			c3.8-10.1,6.9-20.4,9.3-30.9c1.1-4.8,1.9-9.8,2.2-14.7c0.1-1.4,0.1-2.8,0.1-4.1c-0.2-23.6-11.9-26.8-11.9-26.8
			c-0.2-0.1-0.5-0.2-0.8-0.3c-2-0.3-4.2,1.1-6.3,3.7c-2.8,3.3-5.7,8.8-8.7,15.4c-4.6,10.5-9.5,24.1-14.1,37.6
			c-2.5,7.4-5,14.8-7.4,21.6c-1.4,4.1-2.8,8-4.1,11.6c-1.9,5.5-4.2,10.7-6.8,15.8c-1.3,2.3-5,5.4-10,9c-8.6,6.3-21.2,13.8-32.2,20
			c-4.6,2.6-8.9,5-12.4,6.9C1589,1507.2,1585.2,1509.2,1585.2,1509.2z"/>
		<path class="st17" d="M1681.8,1381.5c15.7-4.3,27.7,7.9,27.7,7.9c-0.2-23.5-11.9-26.8-11.9-26.8
			C1692.9,1360.7,1687.4,1368.9,1681.8,1381.5z"/>
		<path class="st21" d="M1704.1,1865.4h54.1c0,0,1.3-8.3-1.5-14.5c-2.7-6-6.9-8.7-5.9-16c-3.4,3.5-9,7.5-16.9,6.4
			c-1,1.6-6.2,9.9-9.4,12.2C1721,1856.1,1705.2,1855.2,1704.1,1865.4z"/>
		<path class="st21" d="M1588,1865.4h54.1c0,0,2-8.6-1.5-14.5c-3.1-5.2-1.9-8.2,0.4-12.4c-2.9,1.2-6,1.8-9.1,1.7
			c-2.8-0.3-5.6-1.3-8-2.8c-2.3,2.7-12.3,14-15.4,16.2C1604.8,1856.1,1589.1,1855.2,1588,1865.4z"/>
		<path class="st22" d="M1582,1557.4l-12.9-31.4c-1.7-4.1-6.1-6.2-10.3-5.1c-4-7.6-9.7-14.2-16.8-19.1c-6.6-4.7-14.5-7.3-22.6-7.4
			c-4.1,0-8.2,0.8-12.1,2.4c-18.3,7.5-26.5,30.6-19.8,53.3l-1,0.4c0,0-3.1-0.2-8.4-0.2c-16.6,0-54.2,2.2-80.6,20.5
			c-1.1,1.3-1.7,2.8-1.7,4.5c0,1,0.1,2.1,0.6,3c0,0,42.4-27.4,81.6,0.8c2.4,1.7,4.7,3.3,7,4.8l3.5,8.6c5.9,14.3,22.2,21.1,36.5,15.3
			l35.9-14.7l7.5-3.1C1581.1,1584.7,1587.2,1570.2,1582,1557.4z M1512.4,1532l-14.6,6c-3.9,1.6-6,5.9-5,10l-1.6,0.6
			c-6-20.7,1.3-41.5,17.6-48.2c2.2-0.9,4.6-1.5,7-1.8c7.5-1,15.3,1,22.4,5.4c7.2,4.6,13,10.9,17,18.4l-2.2,0.9
			c-2.2-3.7-6.7-5.2-10.6-3.6l-14.6,6c-1.1-2.7-3.8-4.5-6.7-4.5c-0.9,0-1.8,0.2-2.7,0.5l-2,0.8
			C1512.7,1524.1,1510.9,1528.3,1512.4,1532C1512.4,1532,1512.4,1532,1512.4,1532L1512.4,1532z"/>
		<path class="st23" d="M1485,1583.8c-2.3-1.5-4.6-3.1-7-4.8c-39.2-28.2-81.6-0.8-81.6-0.8c-0.4-0.9-0.6-2-0.6-3
			c5.9-3.9,28.2-16.9,55.7-12.5C1483.9,1568.1,1489.7,1572.6,1485,1583.8z"/>
		<path class="st23" d="M1568.4,1589.9l-7.5,3.1c11.2-6.1-2.7-32-10.8-49.1s-20.4-9.3-20.4-9.3c-1.7-3.4-5.1-5.5-8.8-5.4
			c-0.3-5.5-4.5-6.6-4.5-6.6l2-0.8c0.9-0.4,1.8-0.5,2.7-0.5c2.9,0,5.6,1.8,6.7,4.5l14.6-6c3.9-1.6,8.4-0.1,10.6,3.6l2.2-0.9
			c-4-7.5-9.8-13.8-17-18.4c-7-4.4-14.9-6.4-22.4-5.4c1.4-1.2,2.6-2.6,3.6-4.1c8.1,0.1,16,2.7,22.6,7.4c7.1,4.9,12.8,11.5,16.9,19.1
			c4.2-1.2,8.7,1,10.3,5.1l12.9,31.4C1587.2,1570.1,1581.1,1584.7,1568.4,1589.9z"/>
		<path class="st14" d="M1551.6,1519.3c5.2,2.2,12.5,9.8,24.2,5.2c7-2.6,14.2-4.8,21.5-6.6c1.7-0.3,2.7-0.6,2.7-0.6l-4.6-13.5
			c-0.2,0.1-0.4,0.1-0.6,0.2c-3,0.7-18.3,3.9-25.4,2.3c-8-1.9-21.5,7.8-21.5,7.8S1546.3,1517.2,1551.6,1519.3z"/>
		<path class="st24" d="M1404.7,1600.9c0-4.9-8.8-20-8.8-20s-8.8,15.1-8.8,20c-0.2,4.9,3.7,9,8.5,9.1c4.9,0.2,9-3.7,9.1-8.5
			C1404.7,1601.3,1404.7,1601.1,1404.7,1600.9L1404.7,1600.9z"/>
		<g id="man">
			<path class="st16" d="M2096.3,2429.6c0,0,10.2,9.5,8.2,16.2s-11.2,11.2-12.5,19.5s-6.3,12.7-10.7,12.7h-21.4c0,0-3.3-5.8,4.7-7.6
				s11-11.4,10.5-20.4c-0.2-7,0-14,0.8-21l17-4L2096.3,2429.6z"/>
			<path class="st16" d="M1970.7,2455.5c0,0,2.5,20-2,22.2s-58.2,1.5-58.2,1.5s0-6.7,9.2-8.2s25.5-7,28.2-19.2
				S1970.7,2455.5,1970.7,2455.5z"/>
			<path class="st15" d="M1922.1,2150.5c0,0,3,37.9,6.6,83.4c4.8,61.8,10.7,137.7,11.3,152.1c1,25,5,64.9,5,64.9s9.5,9.5,28.5,5.5
				c0,0,16.9-57,21.8-117.4c0.1-1,0.2-2,0.2-3c4.5-61.4,11.5-190.8,11.5-190.8L1922.1,2150.5z"/>
			<path class="st16" d="M1922.1,2150.5c0,0,3,37.9,6.6,83.4l66.5,105.2c0.1-1,0.2-2,0.2-3c4.5-61.4,11.5-190.8,11.5-190.8
				L1922.1,2150.5z"/>
			<path class="st15" d="M1936,2155c0,0,54.7,137.1,90.7,201.5s47.2,82.4,47.2,82.4s20.6-8.2,22.5-13.9c0,0-13.8-124.4-37.8-154.7
				c-13.6-17.1-29.6-68.6-30.3-86.5s-4.9-53.6-4.9-53.6L1936,2155z"/>
			<path class="st14" d="M1828.7,2136c0,0-19.3,9.3-21.9,11.6s-9,14.1-8.5,14.9s1.4,1.1,3.2-0.1s6.7-6.3,6.8-5.3
				s-13.1,16.6-10.8,19.9s15.7,2.3,23.3-3.1s15.2-25.3,16.3-26.4C1846.8,2138.4,1828.7,2136,1828.7,2136z"/>
			<path class="st25" d="M1827.8,2145.9c-5.4-4.7-5.5-5.8-5.5-5.8s34.2-59.2,37.2-64.9s21.3-94.6,21.3-94.6l63.4-18.4
				c0,0-44.7,115.5-52.5,129.7c-12.9,23.6-55,58.3-55,58.3C1833.4,2149.6,1830.4,2148.1,1827.8,2145.9z"/>
			<path class="st26" d="M1911.9,1939.2c0,0-22.3,39.3-44.1,44.4c0,0,0.9-13.2,6.2-22.2c-2.2-2.6-4.1-4.9-5.7-7
				c-2.9-3.6-5.6-7.4-8.1-11.3l7.4-19.9l5-13.5c2.2,4,4.8,7.8,7.8,11.3C1894.7,1937.3,1911.9,1939.2,1911.9,1939.2z"/>
			<path class="st27" d="M1879.9,1919.9c0,0,0.4,15.9-14.9,28.8c-2.3-2.7-4.5-5.5-6.4-8.5l9-17.2
				C1871.5,1921.5,1875.6,1920.4,1879.9,1919.9z"/>
			<path class="st28" d="M1854.3,1945.9c0,0,33.3-13,24.9-33.6s-9.8-36.2-31.4-28.8s-22.5,17-21.4,24.6S1845.4,1948.7,1854.3,1945.9
				z"/>
			<path class="st29" d="M2026.5,2140.6c-13.4,19.3-114,45.2-112.8,31.8c0.8-8.8,0.8-17.6,0-26.4c-0.3-2.9-0.6-5.9-1.1-9.1
				c-2.6-17.6-8.6-40.2-22.2-66.4c-1-2-2.1-3.9-3.2-5.9c-5.5-10-10.2-20.5-13.9-31.3c-7-20.1-9.8-39.4-6.3-52c0-0.1,0-0.1,0.1-0.2
				c21-9.7,29.2-47.4,29.2-47.4s71.7,12.9,111.9,108.4c0,0,3.9,10.5,8.3,24.7c5.3,17.3,11.5,40.1,12.6,56.3
				C2029.6,2130.9,2028.9,2137.1,2026.5,2140.6z"/>
			<path class="st30" d="M1884,1873.9c0.2-0.5,0.9-1,2.6-1.5c-1.1-0.3-2.2-0.4-3.3-0.1c-0.9-2.3-3.2-6.2-7.5-6.2
				c1.5,0.5,2.8,1.6,3.3,3.1c-5.8-3.7-16.7-4.8-43.8,4.2c-35.7,11.9-17.8,32.6-12.4,34.2s15.4-9,24.3-10.4s13.8,11,17.2,12
				s1.5-1.8,5-4.6s5.6,3.8,5.6,8.5s6.9,9.1,6.9,9.1l4.1-7.5c4.1-7.5,3-34.7-0.9-39.6C1884.7,1874.8,1884.3,1874.3,1884,1873.9z"/>
			<path class="st31" d="M2029,2123.2c-86.5-26.1-100.3-129.3-100.3-129.3s49.3,37.7,87.7,73C2021.8,2084.1,2028,2106.9,2029,2123.2
				z"/>
			<path class="st14" d="M2052.8,2126.6c0,0-1.9,16.4-1.5,19s3.6,10.6,4.4,10.7s3.1,0.1,3.1-1.5s-1.1-3.2-0.4-2.9s0.9,6.4,4,6.3
				s12.3-3.6,11.9-10.8s-10.2-20.3-10.4-21.5C2061.8,2115.7,2052.8,2126.6,2052.8,2126.6z"/>
			<path class="st32" d="M2057.9,2129.3c-6.9,3.1-9.4-0.1-9.4-0.1s-40-66.8-44.2-72.1s-78-37-78-37s-30-11.5-31.2-29.7
				c-1-15.8,8-25.6,17.8-31.4c11.8-7,26.6-6,37.4,2.4c24.2,18.8,72.2,56.6,79.9,66.9c17.2,22.8,36.3,94.4,36.3,94.4
				C2064.2,2125.5,2061.2,2127.8,2057.9,2129.3z"/>
			<path class="st33" d="M1886.1,2174.6l-18,18l-0.2-0.1l-27-17c0,0,14,4.5,15.9,4s21.3-7.2,25.9-6.6c0.2,0,0.5,0.1,0.7,0.2
				L1886.1,2174.6z"/>
			<path class="st34" d="M1867.3,2197.4c-0.7-0.1-2.9-0.7-5.8-1.4c-8.4-2.1-23.2-6.3-29-9.6c-5.2-3-32.9-19.1-52-30.4
				c6.6-3.5,14-4.9,21.4-3.9c22.3,13.1,51.3,30.2,54.9,32.7c5.8,4.1,13.8,9.1,13.8,9.1c0,0.2-0.1,0.4-0.1,0.6
				C1870.2,2195.6,1869.4,2197.9,1867.3,2197.4z"/>
			<path class="st35" d="M1867.3,2197.4c-0.7-0.1-2.9-0.7-5.8-1.4c-8.4-2.1-23.2-6.3-29-9.6c-5.2-3-32.9-19.1-52-30.4
				c-9.6-5.7-17-10.1-18.3-11.1c-3.9-3-11.4-10.5-9.5-11.9s5.4,0,6.8-0.2h0.1c0.3,0,0.8-0.1,1.6-0.2c2.6-0.1,7.7,0.2,14.9,4.4
				c0,0,11.5,6.7,25.9,15.2c22.3,13.1,51.3,30.2,54.9,32.7c5.8,4.1,13.8,9.1,13.8,9.1c0,0.2-0.1,0.4-0.1,0.6
				C1870.2,2195.6,1869.4,2197.9,1867.3,2197.4z"/>
			<path class="st33" d="M1867.3,2197.4c-0.7-0.1-2.9-0.7-5.8-1.4c0.1-2.2-0.6-4.3-2-6l11,4.4
				C1870.2,2195.6,1869.4,2197.9,1867.3,2197.4z"/>
			<g class="st36">
				<path class="st33" d="M1843.5,2183.3L1843.5,2183.3c-0.2-0.1-0.2-0.3-0.1-0.5l0.2-0.3c0.1-0.2,0.3-0.2,0.5-0.1l0,0
					c0.2,0.1,0.2,0.3,0.1,0.5l-0.2,0.3C1843.9,2183.4,1843.7,2183.4,1843.5,2183.3z"/>
				<path class="st33" d="M1841.9,2182.4L1841.9,2182.4c-0.2-0.1-0.2-0.3-0.1-0.5l0.2-0.3c0.1-0.2,0.3-0.2,0.5-0.1l0,0
					c0.2,0.1,0.2,0.3,0.1,0.5c0,0,0,0,0,0l-0.2,0.3C1842.3,2182.4,1842,2182.5,1841.9,2182.4z"/>
				<path class="st33" d="M1840.3,2181.4L1840.3,2181.4c-0.2-0.1-0.2-0.3-0.1-0.5l0.2-0.3c0.1-0.2,0.3-0.2,0.5-0.1l0,0
					c0.2,0.1,0.2,0.3,0.1,0.5l-0.2,0.3C1840.7,2181.5,1840.4,2181.5,1840.3,2181.4C1840.3,2181.4,1840.3,2181.4,1840.3,2181.4z"/>
				<path class="st33" d="M1838.7,2180.5L1838.7,2180.5c-0.2-0.1-0.2-0.3-0.1-0.5l0.2-0.3c0.1-0.2,0.3-0.2,0.5-0.1c0,0,0,0,0,0l0,0
					c0.2,0.1,0.2,0.3,0.1,0.5l-0.2,0.3C1839.1,2180.5,1838.8,2180.6,1838.7,2180.5z"/>
				<path class="st33" d="M1837.1,2179.5L1837.1,2179.5c-0.2-0.1-0.2-0.3-0.1-0.5l0.2-0.3c0.1-0.2,0.3-0.2,0.5-0.1c0,0,0,0,0,0l0,0
					c0.2,0.1,0.2,0.3,0.1,0.5l-0.2,0.3C1837.5,2179.6,1837.2,2179.6,1837.1,2179.5z"/>
				<path class="st33" d="M1835.5,2178.6L1835.5,2178.6c-0.2-0.1-0.2-0.3-0.1-0.5l0.2-0.3c0.1-0.2,0.3-0.2,0.5-0.1l0,0
					c0.2,0.1,0.2,0.3,0.1,0.5l-0.2,0.3C1835.9,2178.6,1835.6,2178.7,1835.5,2178.6C1835.5,2178.6,1835.5,2178.6,1835.5,2178.6z"/>
				<path class="st33" d="M1833.9,2177.6L1833.9,2177.6c-0.2-0.1-0.2-0.3-0.1-0.5l0.2-0.3c0.1-0.2,0.3-0.2,0.5-0.1l0,0
					c0.2,0.1,0.2,0.3,0.1,0.5l-0.2,0.3C1834.2,2177.7,1834,2177.7,1833.9,2177.6z"/>
				<path class="st33" d="M1832.3,2176.7L1832.3,2176.7c-0.2-0.1-0.2-0.3-0.1-0.5l0.2-0.3c0.1-0.2,0.3-0.2,0.5-0.1c0,0,0,0,0,0l0,0
					c0.2,0.1,0.2,0.3,0.1,0.5l-0.2,0.3C1832.7,2176.7,1832.4,2176.8,1832.3,2176.7z"/>
				<path class="st33" d="M1830.7,2175.7L1830.7,2175.7c-0.2-0.1-0.2-0.3-0.1-0.5l0.2-0.3c0.1-0.2,0.3-0.2,0.5-0.1c0,0,0,0,0,0l0,0
					c0.2,0.1,0.2,0.3,0.1,0.5l-0.2,0.3C1831,2175.8,1830.8,2175.8,1830.7,2175.7z"/>
				<path class="st33" d="M1811.8,2164.6L1811.8,2164.6c-0.2-0.1-0.2-0.3-0.1-0.5l0.2-0.3c0.1-0.2,0.3-0.2,0.5-0.1l0,0
					c0.2,0.1,0.2,0.3,0.1,0.5l-0.2,0.3C1812.2,2164.6,1811.9,2164.7,1811.8,2164.6z"/>
				<path class="st33" d="M1810.2,2163.6L1810.2,2163.6c-0.2-0.1-0.2-0.3-0.1-0.5l0.2-0.3c0.1-0.2,0.3-0.2,0.5-0.1l0,0
					c0.2,0.1,0.2,0.3,0.1,0.5l-0.2,0.3C1810.6,2163.7,1810.3,2163.7,1810.2,2163.6C1810.2,2163.6,1810.2,2163.6,1810.2,2163.6z"/>
				<path class="st33" d="M1808.6,2162.7L1808.6,2162.7c-0.2-0.1-0.2-0.3-0.1-0.5l0.2-0.3c0.1-0.2,0.3-0.2,0.5-0.1l0,0
					c0.2,0.1,0.2,0.3,0.1,0.5l-0.2,0.3C1809,2162.7,1808.7,2162.8,1808.6,2162.7z"/>
				<path class="st33" d="M1807,2161.7L1807,2161.7c-0.2-0.1-0.2-0.3-0.1-0.5l0.2-0.3c0.1-0.2,0.3-0.2,0.5-0.1c0,0,0,0,0,0l0,0
					c0.2,0.1,0.2,0.3,0.1,0.5l-0.2,0.3C1807.4,2161.8,1807.2,2161.8,1807,2161.7z"/>
				<path class="st33" d="M1805.3,2160.8L1805.3,2160.8c-0.2-0.1-0.2-0.3-0.1-0.5l0.2-0.3c0.1-0.2,0.3-0.2,0.5-0.1l0,0
					c0.2,0.1,0.2,0.3,0.1,0.5l-0.2,0.3C1805.8,2160.8,1805.5,2160.9,1805.3,2160.8C1805.4,2160.8,1805.4,2160.8,1805.3,2160.8z"/>
				<path class="st33" d="M1803.8,2159.8L1803.8,2159.8c-0.2-0.1-0.2-0.3-0.1-0.5l0.2-0.3c0.1-0.2,0.3-0.2,0.5-0.1l0,0
					c0.2,0.1,0.2,0.3,0.1,0.5l-0.2,0.3C1804.1,2159.9,1803.9,2159.9,1803.8,2159.8z"/>
				<path class="st33" d="M1802.1,2158.9L1802.1,2158.9c-0.2-0.1-0.2-0.3-0.1-0.5l0.2-0.3c0.1-0.2,0.3-0.2,0.5-0.1c0,0,0,0,0,0l0,0
					c0.2,0.1,0.2,0.3,0.1,0.5l-0.2,0.3C1802.5,2158.9,1802.3,2159,1802.1,2158.9z"/>
				<path class="st33" d="M1800.5,2157.9L1800.5,2157.9c-0.2-0.1-0.2-0.3-0.1-0.5l0.2-0.3c0.1-0.2,0.3-0.2,0.5-0.1c0,0,0,0,0,0l0,0
					c0.2,0.1,0.2,0.3,0.1,0.5l-0.2,0.3C1800.9,2158,1800.7,2158,1800.5,2157.9z"/>
				<path class="st33" d="M1798.9,2157L1798.9,2157c-0.2-0.1-0.2-0.3-0.1-0.5l0.2-0.3c0.1-0.2,0.3-0.2,0.5-0.1l0,0
					c0.2,0.1,0.2,0.3,0.1,0.5l-0.2,0.3C1799.3,2157,1799.1,2157.1,1798.9,2157C1798.9,2157,1798.9,2157,1798.9,2157z"/>
				<path class="st33" d="M1792.7,2153.3L1792.7,2153.3c-0.2-0.1-0.2-0.3-0.1-0.5l0.2-0.3c0.1-0.2,0.3-0.2,0.5-0.1l0,0
					c0.2,0.1,0.2,0.3,0.1,0.5l-0.2,0.3C1793.1,2153.4,1792.9,2153.4,1792.7,2153.3z"/>
				<path class="st33" d="M1795.9,2155.2L1795.9,2155.2c-0.2-0.1-0.2-0.3-0.1-0.5l0.2-0.3c0.1-0.2,0.3-0.2,0.5-0.1l0,0
					c0.2,0.1,0.2,0.3,0.1,0.5l-0.2,0.3C1796.3,2155.2,1796,2155.3,1795.9,2155.2z"/>
				<path class="st33" d="M1791.1,2152.4L1791.1,2152.4c-0.2-0.1-0.2-0.3-0.1-0.5l0.2-0.3c0.1-0.2,0.3-0.2,0.5-0.1c0,0,0,0,0,0l0,0
					c0.2,0.1,0.2,0.3,0.1,0.5l-0.2,0.3C1791.5,2152.4,1791.3,2152.5,1791.1,2152.4z"/>
				<path class="st33" d="M1789.5,2151.4L1789.5,2151.4c-0.2-0.1-0.2-0.3-0.1-0.5l0.2-0.3c0.1-0.2,0.3-0.2,0.5-0.1l0,0
					c0.2,0.1,0.2,0.3,0.1,0.5l-0.2,0.3C1789.9,2151.5,1789.7,2151.5,1789.5,2151.4z"/>
				<path class="st33" d="M1787.9,2150.5L1787.9,2150.5c-0.2-0.1-0.2-0.3-0.1-0.5l0.2-0.3c0.1-0.2,0.3-0.2,0.5-0.1l0,0
					c0.2,0.1,0.2,0.3,0.1,0.5l-0.2,0.3C1788.3,2150.5,1788.1,2150.6,1787.9,2150.5z"/>
				<path class="st33" d="M1786.3,2149.5L1786.3,2149.5c-0.2-0.1-0.2-0.3-0.1-0.5l0.2-0.3c0.1-0.2,0.3-0.2,0.5-0.1l0,0
					c0.2,0.1,0.2,0.3,0.1,0.5l-0.2,0.3C1786.7,2149.6,1786.5,2149.6,1786.3,2149.5z"/>
				<path class="st33" d="M1784.7,2148.6L1784.7,2148.6c-0.2-0.1-0.2-0.3-0.1-0.5l0.2-0.3c0.1-0.2,0.3-0.2,0.5-0.1l0,0
					c0.2,0.1,0.2,0.3,0.1,0.5l-0.2,0.3C1785.1,2148.6,1784.9,2148.7,1784.7,2148.6C1784.7,2148.6,1784.7,2148.6,1784.7,2148.6z"/>
				<path class="st33" d="M1783.1,2147.6L1783.1,2147.6c-0.2-0.1-0.2-0.3-0.1-0.5l0.2-0.3c0.1-0.2,0.3-0.2,0.5-0.1l0,0
					c0.2,0.1,0.2,0.3,0.1,0.5l-0.2,0.3C1783.5,2147.7,1783.3,2147.7,1783.1,2147.6z"/>
				<path class="st33" d="M1781.5,2146.7L1781.5,2146.7c-0.2-0.1-0.2-0.3-0.1-0.5c0,0,0,0,0,0l0.2-0.3c0.1-0.2,0.3-0.2,0.5-0.1l0,0
					c0.2,0.1,0.2,0.3,0.1,0.5l-0.2,0.3C1781.9,2146.7,1781.7,2146.8,1781.5,2146.7z"/>
				<path class="st33" d="M1779.9,2145.7L1779.9,2145.7c-0.2-0.1-0.2-0.3-0.1-0.5l0.2-0.3c0.1-0.2,0.3-0.2,0.5-0.1l0,0
					c0.2,0.1,0.2,0.3,0.1,0.5l-0.2,0.3C1780.3,2145.8,1780.1,2145.8,1779.9,2145.7z"/>
				<path class="st33" d="M1778.3,2144.8L1778.3,2144.8c-0.2-0.1-0.2-0.3-0.1-0.5l0.2-0.3c0.1-0.2,0.3-0.2,0.5-0.1l0,0
					c0.2,0.1,0.2,0.3,0.1,0.5l-0.2,0.3C1778.7,2144.9,1778.5,2144.9,1778.3,2144.8C1778.3,2144.8,1778.3,2144.8,1778.3,2144.8z"/>
				<path class="st33" d="M1776.7,2143.9L1776.7,2143.9c-0.2-0.1-0.2-0.3-0.1-0.5l0.2-0.3c0.1-0.2,0.3-0.2,0.5-0.1c0,0,0,0,0,0l0,0
					c0.2,0.1,0.2,0.3,0.1,0.5l-0.2,0.3C1777.1,2143.9,1776.9,2144,1776.7,2143.9z"/>
				<path class="st33" d="M1775.1,2142.9L1775.1,2142.9c-0.2-0.1-0.2-0.3-0.1-0.5l0.2-0.3c0.1-0.2,0.3-0.2,0.5-0.1l0,0
					c0.2,0.1,0.2,0.3,0.1,0.5l-0.2,0.3C1775.5,2143,1775.3,2143,1775.1,2142.9z"/>
				<path class="st33" d="M1762.8,2134.6c-0.1,0.2-0.4,0.3-0.6,0.2c-0.1,0-0.1-0.1-0.2-0.1l-2.5-2c0.3,0,0.8-0.1,1.6-0.2l1.6,1.3
					C1763,2134,1763,2134.4,1762.8,2134.6C1762.8,2134.6,1762.8,2134.6,1762.8,2134.6z"/>
				<path class="st33" d="M1804.8,2157.9l0.5,0.3c0.3,0.2,0.4,0.6,0.2,0.9l-1.2,2c-0.2,0.3-0.6,0.4-0.9,0.2l-0.5-0.3
					c-0.3-0.2-0.4-0.6-0.2-0.9l1.2-2C1804,2157.8,1804.4,2157.7,1804.8,2157.9z"/>
				<path class="st33" d="M1807.9,2159.7l0.5,0.3c0.3,0.2,0.4,0.6,0.2,0.9l-1.2,2c-0.2,0.3-0.6,0.4-0.9,0.2l-0.5-0.3
					c-0.3-0.2-0.4-0.6-0.2-0.9l1.2-2C1807.2,2159.7,1807.6,2159.5,1807.9,2159.7z"/>
				<path class="st33" d="M1825.9,2173L1825.9,2173c-0.2-0.1-0.2-0.3-0.1-0.5l0.2-0.3c0.1-0.2,0.3-0.2,0.5-0.1l0,0
					c0.2,0.1,0.2,0.3,0.1,0.5l-0.2,0.3C1826.3,2173,1826.1,2173.1,1825.9,2173z"/>
				<path class="st33" d="M1824.3,2172L1824.3,2172c-0.2-0.1-0.2-0.3-0.1-0.5l0.2-0.3c0.1-0.2,0.3-0.2,0.5-0.1l0,0
					c0.2,0.1,0.2,0.3,0.1,0.5l-0.2,0.3C1824.7,2172,1824.5,2172.1,1824.3,2172C1824.3,2172,1824.3,2172,1824.3,2172z"/>
				<path class="st33" d="M1822.7,2171.1L1822.7,2171.1c-0.2-0.1-0.2-0.3-0.1-0.5c0,0,0,0,0,0l0.2-0.3c0.1-0.2,0.3-0.2,0.5-0.1l0,0
					c0.2,0.1,0.2,0.3,0.1,0.5c0,0,0,0,0,0l-0.2,0.3C1823.1,2171.1,1822.9,2171.2,1822.7,2171.1z"/>
				<path class="st33" d="M1821.1,2170.1L1821.1,2170.1c-0.2-0.1-0.2-0.3-0.1-0.5c0,0,0,0,0,0l0.2-0.3c0.1-0.2,0.3-0.2,0.5-0.1l0,0
					c0.2,0.1,0.2,0.3,0.1,0.5c0,0,0,0,0,0l-0.2,0.3C1821.5,2170.2,1821.3,2170.2,1821.1,2170.1z"/>
				<path class="st33" d="M1819.5,2169.2L1819.5,2169.2c-0.2-0.1-0.2-0.3-0.1-0.5l0.2-0.3c0.1-0.2,0.3-0.2,0.5-0.1l0,0
					c0.2,0.1,0.2,0.3,0.1,0.5l-0.2,0.3C1819.9,2169.2,1819.7,2169.3,1819.5,2169.2z"/>
				<path class="st33" d="M1817.9,2168.2L1817.9,2168.2c-0.2-0.1-0.2-0.3-0.1-0.5c0,0,0,0,0,0l0.2-0.3c0.1-0.2,0.3-0.2,0.5-0.1l0,0
					c0.2,0.1,0.2,0.3,0.1,0.5c0,0,0,0,0,0l-0.2,0.3C1818.3,2168.3,1818.1,2168.3,1817.9,2168.2
					C1817.9,2168.2,1817.9,2168.2,1817.9,2168.2z"/>
				<path class="st33" d="M1816.3,2167.3L1816.3,2167.3c-0.2-0.1-0.2-0.3-0.1-0.5c0,0,0,0,0,0l0.2-0.3c0.1-0.2,0.3-0.2,0.5-0.1
					c0,0,0,0,0,0l0,0c0.2,0.1,0.2,0.3,0.1,0.5l-0.2,0.3C1816.7,2167.3,1816.5,2167.4,1816.3,2167.3z"/>
				<path class="st33" d="M1814.7,2166.3L1814.7,2166.3c-0.2-0.1-0.2-0.3-0.1-0.5l0.2-0.3c0.1-0.2,0.3-0.2,0.5-0.1c0,0,0,0,0,0l0,0
					c0.2,0.1,0.2,0.3,0.1,0.5l-0.2,0.3C1815.1,2166.4,1814.9,2166.4,1814.7,2166.3z"/>
				<path class="st33" d="M1813.1,2165.4L1813.1,2165.4c-0.2-0.1-0.2-0.3-0.1-0.5l0.2-0.3c0.1-0.2,0.3-0.2,0.5-0.1l0,0
					c0.2,0.1,0.2,0.3,0.1,0.5l-0.2,0.3C1813.5,2165.4,1813.3,2165.5,1813.1,2165.4C1813.1,2165.4,1813.1,2165.4,1813.1,2165.4z"/>
			</g>
			<path class="st30" d="M1803.3,2169.9c0.7,0.1,1.4-0.4,1.5-1.1c0.1-0.3,0-0.6-0.2-0.9c-0.6-1.1-1.5-2.1-2.6-2.7
				c-2.4-1.4-3.2,3-2.4,3.5C1800.8,2169.3,1802,2169.7,1803.3,2169.9z"/>
			<path class="st30" d="M1803,2164.6l-3,5c-2.5-0.6-4.8-1.6-7-2.9c-1.7-0.9-3.3-2.1-4.8-3.5c-0.3-0.2-0.5-0.5-0.7-0.8l3.1-5.3
				c0.4,0,0.8,0,1.1,0.1c3.6,1,10.8,6.8,10.8,6.8L1803,2164.6z"/>
			<path class="st33" d="M1791.8,2157.4l-3.5,6c-0.3-0.2-0.5-0.5-0.7-0.8l3.1-5.3C1791,2157.2,1791.4,2157.2,1791.8,2157.4z"/>
			<path class="st30" d="M1859.7,2189.2c0.2,0,10.5,2.3,16.1,6.4l-7.1-0.1l-9.1-5.4C1859.5,2190.1,1858.9,2189.4,1859.7,2189.2z"/>
			<path class="st33" d="M1838.6,2168.7c0,0-6.4,4.4-7.5,5c-0.9,0.4-1.9,0.5-2.9,0.4l0,0l-11-1.9c0,0-11.7-6.8-14.2-8.4l0,0
				l-0.4-0.3c-0.7-0.5-1-1-0.7-1.2s19.5,7.5,21.6,8.4h0.1c2.1,0.8,2.5,0.4,2.5,0.4l10.6-2.9c0.2-0.1,0.4-0.1,0.6-0.1
				C1837.7,2168.3,1838.2,2168.4,1838.6,2168.7z"/>
			<path class="st33" d="M1837.2,2168.2c-2.9,0.9-10.9,3.3-11.6,3.4s-18.2-6.3-22.5-7.8l0,0l-0.4-0.3c-0.7-0.5-1-1-0.7-1.2
				s19.5,7.5,21.6,8.4s2.6,0.4,2.6,0.4l10.6-2.9C1836.8,2168.2,1837,2168.2,1837.2,2168.2z"/>
			<path class="st33" d="M1838.6,2168.7c0,0-6.4,4.4-7.5,5c-0.9,0.4-1.9,0.5-2.9,0.4l0,0c-1.7-0.9-3.3-2-4.7-3.3
				c2.1,0.8,2.5,0.4,2.5,0.4l10.6-2.9c0.2-0.1,0.4-0.1,0.6-0.1C1837.7,2168.3,1838.2,2168.5,1838.6,2168.7z"/>
			<path class="st35" d="M1868.3,2192.7l-27.5-17.2c0,0,14.2,4.6,16.1,4.1s21.6-7.1,26.2-6.5c-5.3,2.1-17.8,7.4-18.6,10.4
				S1866.7,2190.7,1868.3,2192.7z"/>
		</g>
		<path class="st37" d="M1639.6,2185.4c0.1-5.8,4.6-15.6-4.3-25c-5.2-5.7-10-11.7-14.5-18c-1-1.5-11.7,7.3-11.4,7.7
			c1.8,2.6,9.8,15.9,11,23.3c1.3,8.4,15.6,17.5,15.6,17.5S1639.6,2191.1,1639.6,2185.4z"/>
		<path class="st30" d="M1707,2186.5c-14.1,0.7-23.7-21.1-29.7-21.4c-1.7,0.1-3.5,0.3-5.2,0.6c6.2,10.3,10.5,21.5,12.8,33.3
			c8.4,42.2-9.4,81.3-39.8,87.4c-29.6,5.9-60.2-21.6-69.6-62c-0.3-1.1-0.5-2.3-0.7-3.4c-2.4-11.7-2.7-23.6-1-35.4c0,0,0-0.1,0-0.1
			c-1,0.2-1.9,0.5-2.8,0.9c-5.4,2.6-5.8,26.4-19.1,31.2s-22.3-20.7-6.4-40.6c9.7-12.1,26.8-17.9,38.6-20.7c2.4-3.9,5.2-7.5,8.5-10.8
			l0.4-0.4c-9.1-4.9-15.5-13.5-17.5-23.6c-0.7-3.5-0.9-7-0.5-10.5h-0.1c-9.3-2.8-14.5-12.6-11.7-21.9s12.6-14.5,21.9-11.7
			c3.6,1.1,6.8,3.3,9,6.3c5.1-2.5,10.8-3.7,16.5-3.6c2.5-9.4,12.1-15,21.5-12.5c9.4,2.5,15,12.1,12.5,21.5c-0.9,3.2-2.6,6.2-5.1,8.4
			c6.8,11.9,5.9,26.6-2.1,37.6c5.1,1.8,10,4.4,14.3,7.6c11.9-2.3,31.4-4.1,45.8,3.8C1719.5,2158.8,1721,2185.8,1707,2186.5z"/>
		<path class="st21" d="M1575.5,2224.4c-0.3-1.1-0.5-2.3-0.7-3.4c-2.4-11.7-2.7-23.6-1-35.4c1.8-2,4.1-3.6,6.7-2.3
			c5.8,2.8,4.9,30.6,13.8,37.1C1600.8,2225.1,1584.3,2225.2,1575.5,2224.4z"/>
		<path class="st21" d="M1609.3,2141.1c-5.5,2-11.1,3.5-16.9,4.4l0.4-0.4c-9.1-4.9-15.5-13.5-17.5-23.6c-0.7-3.5-0.9-7-0.5-10.5
			h-0.1c0.3-0.1,0.8,0.1,1.4,0.9c2.2,3.1,14.2,28.6,33.2,25.7C1609.3,2137.6,1614.2,2139.3,1609.3,2141.1z"/>
		<path class="st21" d="M1618.3,2082.4c0,0,4.4-8.3,11-6.1s7.5,11.6,3.2,14.3C1632.5,2090.6,1626.1,2084.7,1618.3,2082.4z"/>
		<path class="st21" d="M1587.3,2087.3c0,0-9.5-4.4-13.8,0.7s4.3,11.5,4.3,11.5S1581.9,2090.9,1587.3,2087.3z"/>
		<path class="st38" d="M1511,2240.4c-6.7-6-1.2-20.3-3.8-23.1c-0.8-0.8-1.7-1.5-2.6-2.1c-1.8,7.4-5,14.5-9.2,20.8
			c-15.2,22.9-41,32.6-57.5,21.6c-16-10.7-17.5-37-3.5-59.4c0.4-0.6,0.8-1.3,1.2-1.9c4.2-6.3,9.4-11.9,15.5-16.5l0,0
			c-0.5-0.3-1.1-0.6-1.7-0.9c-3.6-1.3-14.6,9.3-22.7,5.5s-0.7-19.4,15.4-21.3c9.8-1.1,20.2,4,26.8,8.1c2.8-0.7,5.8-1.1,8.7-1.1h0.3
			c-2.6-8.6,0.3-17.9,7.3-23.5l0,0c-2.9-5.5-0.9-12.3,4.6-15.2c5.5-2.9,12.3-0.9,15.2,4.6c1.1,2.1,1.6,4.5,1.2,6.9
			c1.8,0.6,3.5,1.5,5.2,2.5c1.4,0.9,2.7,2.1,3.9,3.3c5.4-3.1,12.2-1.3,15.3,4.1c3.1,5.4,1.3,12.2-4.1,15.3c-1.8,1.1-4,1.6-6.1,1.5
			c-2.3,8.4-9.3,14.7-17.9,16c1.5,3.1,2.5,6.5,3.1,9.9c6.4,4.4,16.1,12.3,19,22.4C1529.2,2233.5,1517.7,2246.4,1511,2240.4z"/>
		<path class="st39" d="M1434.4,2198.1c0.4-0.6,0.8-1.3,1.2-1.9c4.2-6.3,9.4-11.9,15.5-16.5c1.7-0.1,3.4,0.2,4.1,2
			c1.4,3.9-11.6,16.1-10.5,23C1445.6,2209.9,1438.1,2202.5,1434.4,2198.1z"/>
		<path class="st39" d="M1487.3,2175.7c-3.4-1.6-6.6-3.5-9.6-5.6h0.3c-2.6-8.6,0.3-17.9,7.3-23.5l0,0c0.2,0.1,0.3,0.4,0.2,1
			c-0.4,2.4-6.5,19.3,3.4,26.6C1488.9,2174.1,1490.4,2177.1,1487.3,2175.7z"/>
		<path class="st40" d="M1517.9,2153.3c0,0,5.8-1.7,7.8,2.2s-1.9,8.7-5,7.9C1520.4,2159.8,1519.5,2156.4,1517.9,2153.3z"/>
		<path class="st40" d="M1501.7,2141.5c0,0-2.3-6.3-6.5-5.9s-3.3,7.1-3.3,7.1S1497.6,2140.7,1501.7,2141.5z"/>
		<path class="st41" d="M1369.1,2236.9c0,0-14.4-18.6-14.5-33.7s0.3-20.2,2.9-19.5s13.9,9.1,18,17.5s11.3,30.4,11.4,33.4
			S1369.1,2236.9,1369.1,2236.9z"/>
		<path class="st42" d="M1369.9,2231c0,0-9.2-12.8-9.6-23.1s-0.2-13.6,1.4-13.1s8.7,6.4,11.4,12.2s7.5,20.8,7.7,22.8
			S1369.9,2231,1369.9,2231z"/>
		<path class="st41" d="M1392.3,2229.1c0,0-6.9-25.1-4.2-32s16.9-2.3,18.5,2.6s0.6,25.2,0.6,25.2L1392.3,2229.1z"/>
		<path class="st42" d="M1394.1,2200.2c0,0-1,19.9,2.5,27.7l6.7-1.9c0,0,1-22.3,0.1-23.8S1394.1,2200.2,1394.1,2200.2z"/>
		<path class="st41" d="M1387.7,2198.6c0,0,23.2,15.4,25.1,13.7s-5.2-17.2-7.9-18.6S1387.6,2189.4,1387.7,2198.6z"/>
		<rect x="1345" y="2218.4" class="st43" width="316.4" height="260.9"/>
		<rect x="1503.3" y="2218.4" class="st17" width="316.4" height="260.9"/>
		<polygon class="st44" points="1819.7,2218.4 1819.7,2301.3 1503.3,2320.2 1503.3,2218.4 		"/>
		<polygon class="st17" points="1503.3,2218.4 1565.9,2287.1 1878.1,2287.1 1819.7,2218.4 		"/>
		<polygon class="st45" points="1345.2,2413.2 1395.4,2413.2 1390.9,2399.1 1395.4,2389 1345.2,2389 		"/>
		<polygon class="st44" points="1819.8,2457.9 1769.6,2457.9 1774,2443.8 1769.6,2433.7 1819.8,2433.7 		"/>
		<polygon class="st46" points="1503.3,2247.9 1436.6,2314.6 1345.2,2314.6 1345.2,2218.4 1503.3,2218.4 		"/>
		<polygon class="st17" points="1345,2218.4 1273.9,2287.1 1432.2,2287.1 1503.3,2218.4 		"/>
		<path class="st47" d="M1266.9,2410.6l-5.8,1.1c-6.9,1.3-13.5-3.2-14.8-10l-8.5-43.6c-1.2-6.2,2.3-12.3,8.2-14.4
			c-0.1-0.2-0.1-0.3-0.1-0.5l-0.5-2.6c-0.3-1.8,0.8-3.5,2.6-3.9l2.6-0.5c1.8-0.3,3.5,0.8,3.9,2.6l0.5,2.6c0,0.1,0,0.2,0,0.4
			c0,0,0,0,0,0.1c6.4-0.5,12.2,3.9,13.4,10.2l8.5,43.6C1278.2,2402.6,1273.7,2409.2,1266.9,2410.6z"/>
		
			<rect x="1241" y="2357.3" transform="matrix(0.9817 -0.1906 0.1906 0.9817 -429.2573 283.061)" class="st30" width="31.2" height="30.5"/>
		<path class="st33" d="M1255,2341.9l-9,1.9c-0.1-0.2-0.1-0.3-0.1-0.5l-0.5-2.6c-0.3-1.8,0.8-3.5,2.6-3.9l2.6-0.5
			c1.8-0.3,3.5,0.8,3.9,2.6l0.5,2.6C1255,2341.6,1255,2341.8,1255,2341.9z"/>
		<path class="st48" d="M1422.2,2330.9c0,0-3.8,5.3-7.3,5.4s-8.8-2.5-8.8-2.5s-3.2-7.1-1-9.9c1.5-0.5,3.2-0.3,4.4,0.7
			c0.4,0.3,0.8,0.7,1.2,1.1c0.5,0.6,1.1,1,1.8,1.2c2.5,0.8,5.4-1,6.5,0.7c0.5,0.9,1.2,1.6,1.9,2.3
			C1421.4,2330.3,1421.8,2330.6,1422.2,2330.9z"/>
		<path class="st48" d="M1372.7,2369.4c0,0,13.4-32.5,37.6-33.1c0,0,22.3,2.5,23.5,33.1H1372.7z"/>
		<path class="st45" d="M1403.7,2337.3c0,0,9.7,2.1,12.7,0.9c0,0,0.4-4-3.6-3.5c-2,0.2-4-0.3-5.7-1.5
			C1405.5,2332.4,1403.3,2335.6,1403.7,2337.3z"/>
		<path class="st49" d="M1412.1,2331.2c-0.6,0.5-2.5-6.5-2.5-6.5c0.4,0.3,0.8,0.7,1.2,1.1c0.5,0.6,1.1,1,1.8,1.2
			C1412.6,2327.2,1412.7,2330.7,1412.1,2331.2z"/>
		<path class="st49" d="M1421,2330c-0.1,0.1-4.6,2.8-5.2,2.8s3.3-5,3.3-5C1419.6,2328.6,1420.3,2329.3,1421,2330z"/>
		<path class="st49" d="M1385.8,2360.3c-0.2-0.2,9.5-14.3,12.2-14.4s8.7,3.1,13.1,3.5s8.6-0.8,9.4,1.8s3.1,11.7,1.7,13.2
			S1391.2,2364.9,1385.8,2360.3z"/>
		<path class="st42" d="M1272.8,2382.3c-0.4,0.7-0.9,1.3-1.5,1.7c-0.4,0.2-0.7,0.4-1.1,0.6c-1.2,0.4-2.4,0.3-3.5-0.3l-60.1-30.5
			c-2.3-1.2-3.2-3.9-2-6.2c0.6-1.1,1.5-1.9,2.7-2.3c1.2-0.4,2.4-0.3,3.5,0.3l60.1,30.5C1273,2377.2,1273.9,2380,1272.8,2382.3z"/>
		<polygon class="st50" points="1226.4,2363.9 1222.6,2351.6 1212.9,2346.7 1218.8,2360 		"/>
		<polygon class="st50" points="1241.1,2371.4 1233.5,2367.5 1227.6,2354.2 1237.3,2359.1 		"/>
		<polygon class="st50" points="1255.8,2378.8 1248.1,2374.9 1242.3,2361.6 1252,2366.6 		"/>
		<path class="st50" d="M1271.3,2384c-0.4,0.2-0.7,0.4-1.1,0.6c-1.2,0.4-2.4,0.3-3.5-0.3l-3.5-1.8l-5.8-13.3l9.7,4.9L1271.3,2384z"
			/>
		<path class="st50" d="M1204.5,2347.6c0,0-1.2-6.5-6.5-8.5c0,0,0.6,0.8-1.9,1.6s-1.8,2.6-2.7,3.4
			C1193.3,2344,1197,2348.9,1204.5,2347.6z"/>
		<path class="st33" d="M1203.4,2348.4l-0.1-0.1c-0.4-0.2-0.6-0.7-0.4-1.1l0.8-1.5c0.2-0.4,0.7-0.6,1.1-0.4l0.2,0.1
			c0.4,0.2,0.6,0.7,0.4,1.1c0,0,0,0,0,0l-0.8,1.5C1204.3,2348.5,1203.8,2348.6,1203.4,2348.4
			C1203.4,2348.4,1203.4,2348.4,1203.4,2348.4z"/>
		<path class="st50" d="M1272.6,2382.2c0,0,6-2.9,10.7,0.3c0,0-1-0.1-0.1,2.5s-1,3-1.1,4.2C1282,2389.1,1275.9,2389,1272.6,2382.2z"
			/>
		<path class="st33" d="M1272.8,2383.6l-0.1-0.1c-0.4-0.2-0.6-0.7-0.4-1.1l0.7-1.5c0.2-0.4,0.7-0.6,1.1-0.4l0.1,0.1
			c0.4,0.2,0.6,0.7,0.4,1.1l-0.7,1.5C1273.7,2383.6,1273.2,2383.8,1272.8,2383.6z"/>
		<path class="st45" d="M1350.6,2382.8c-0.7,0.4-1.5,0.6-2.2,0.6c-0.4,0-0.8,0-1.3-0.2c-1.2-0.3-2.2-1.1-2.8-2.1l-33.8-58.4
			c-1.3-2.2-0.5-5,1.7-6.3c2.2-1.3,5-0.5,6.3,1.7l33.8,58.4C1353.6,2378.7,1352.8,2381.5,1350.6,2382.8z"/>
		<polygon class="st48" points="1321.8,2342.1 1325.3,2329.7 1319.8,2320.3 1317.5,2334.6 		"/>
		<polygon class="st48" points="1330,2356.3 1325.7,2348.9 1328.1,2334.6 1333.5,2344 		"/>
		<polygon class="st48" points="1338.3,2370.6 1334,2363.1 1336.3,2348.8 1341.8,2358.2 		"/>
		<path class="st48" d="M1348.4,2383.4c-0.4,0-0.8,0-1.3-0.2c-1.2-0.3-2.2-1.1-2.8-2.1l-2-3.4l2.3-14.3l5.4,9.4L1348.4,2383.4z"/>
		<path class="st45" d="M1312.3,2316.4c0,0,2.5-6.1-0.8-10.7c0,0,0.1,1-2.5,0.3s-2.9,1.2-4.1,1.3
			C1304.8,2307.4,1305.2,2313.5,1312.3,2316.4z"/>
		<path class="st43" d="M1310.9,2316.6l-0.1-0.1c-0.2-0.4-0.1-0.9,0.3-1.1c0,0,0,0,0,0l1.4-0.8c0.4-0.2,0.9-0.1,1.1,0.3l0.1,0.1
			c0.2,0.4,0.1,0.9-0.3,1.1c0,0,0,0,0,0l-1.4,0.8C1311.7,2317.1,1311.2,2317,1310.9,2316.6
			C1310.9,2316.6,1310.9,2316.6,1310.9,2316.6z"/>
		<path class="st45" d="M1350.5,2382.5c0,0,6.6,0.9,8.8,6.1c0,0-0.8-0.6-1.5,2s-2.5,2-3.2,2.9
			C1354.6,2393.5,1349.6,2390.1,1350.5,2382.5z"/>
		<path class="st43" d="M1349.7,2383.6l0.1,0.1c0.2,0.4,0.7,0.5,1.1,0.3l1.4-0.8c0.4-0.2,0.5-0.7,0.3-1.1l-0.1-0.1
			c-0.2-0.4-0.7-0.5-1.1-0.3c0,0,0,0,0,0l-1.4,0.8C1349.6,2382.7,1349.5,2383.2,1349.7,2383.6z"/>
		<path class="st33" d="M1241.3,2399.1c-2.2-1.2-3.1-4-1.9-6.2l31.5-59.6c1.2-2.2,4-3.1,6.2-1.9c1.1,0.6,1.9,1.6,2.3,2.7
			c0.4,1.2,0.2,2.4-0.3,3.5l-31.5,59.6C1246.4,2399.5,1243.6,2400.3,1241.3,2399.1z"/>
		<polygon class="st7" points="1260.5,2353.1 1272.8,2349.5 1277.9,2339.9 1264.5,2345.5 		"/>
		<polygon class="st7" points="1252.8,2367.6 1256.8,2360 1270.2,2354.4 1265.1,2364 		"/>
		<polygon class="st7" points="1245.1,2382.2 1249.1,2374.6 1262.5,2369 1257.4,2378.6 		"/>
		<path class="st7" d="M1239.6,2397.6c-0.9-1.4-1-3.2-0.2-4.7l1.8-3.5l13.4-5.6l-5.1,9.6L1239.6,2397.6z"/>
		<path class="st7" d="M1277.1,2331.4c0,0,6.6-1.1,8.6-6.4c0,0-0.8,0.6-1.5-1.9s-2.6-1.9-3.3-2.8
			C1280.9,2320.2,1275.9,2323.9,1277.1,2331.4z"/>
		<path class="st33" d="M1276.3,2330.3l0.1-0.1c0.2-0.4,0.7-0.6,1.1-0.4l1.5,0.8c0.4,0.2,0.5,0.7,0.3,1.1l-0.1,0.1
			c-0.2,0.4-0.7,0.5-1.1,0.3l-1.5-0.8C1276.2,2331.2,1276.1,2330.7,1276.3,2330.3z"/>
		<path class="st33" d="M1241.5,2398.9c0,0,2.8,6-0.4,10.7c0,0,0.1-1-2.5-0.2s-3-1.1-4.2-1.2
			C1234.4,2408.2,1234.6,2402.1,1241.5,2398.9z"/>
		<path class="st33" d="M1240.1,2398.8l-0.1,0.1c-0.2,0.4-0.1,0.9,0.3,1.1l1.5,0.8c0.4,0.2,0.9,0.1,1.1-0.4l0.1-0.1
			c0.2-0.4,0.1-0.9-0.3-1.1l-1.5-0.8C1240.8,2398.2,1240.3,2398.4,1240.1,2398.8z"/>
		<path class="st50" d="M1304.3,2344.9c0,0,2.8,3.9,5.3,3.9s6.4-1.8,6.4-1.8s2.3-5.2,0.8-7.2c-1.1-0.4-2.3-0.2-3.2,0.5
			c-0.3,0.2-0.6,0.5-0.8,0.8c-0.3,0.4-0.8,0.7-1.3,0.9c-1.8,0.6-3.9-0.7-4.7,0.5c-0.4,0.6-0.9,1.2-1.4,1.6
			C1304.9,2344.5,1304.6,2344.7,1304.3,2344.9z"/>
		<path class="st50" d="M1340.2,2372.9c0,0-9.7-23.6-27.3-24c0,0-16.2,1.8-17.1,24H1340.2z"/>
		<path class="st51" d="M1317.7,2349.6c0,0-7,1.6-9.2,0.6c0,0-0.3-2.9,2.6-2.5c1.5,0.1,2.9-0.2,4.1-1.1
			C1316.4,2346.1,1318,2348.4,1317.7,2349.6z"/>
		<path class="st51" d="M1311.6,2345.2c0.4,0.3,1.8-4.8,1.8-4.8c-0.3,0.2-0.6,0.5-0.8,0.8c-0.3,0.4-0.8,0.7-1.3,0.9
			C1311.3,2342.3,1311.2,2344.8,1311.6,2345.2z"/>
		<path class="st51" d="M1305.1,2344.3c1.2,0.8,2.5,1.4,3.8,2c0.4,0-2.4-3.6-2.4-3.6C1306.1,2343.2,1305.7,2343.8,1305.1,2344.3z"/>
		<path class="st51" d="M1330.7,2366.3c0.2-0.1-6.9-10.4-8.8-10.5s-6.3,2.3-9.5,2.6s-6.2-0.6-6.8,1.3s-2.2,8.5-1.2,9.6
			S1326.8,2369.6,1330.7,2366.3z"/>
		<path class="st47" d="M1374.1,2346.2L1374.1,2346.2c-2.9,0-4.3-4.3-4.3-4.3l-28.2,8.5c0.7,1.8,0.4,3.9-0.8,5.5
			c0,0-4.9,3.3-3.4,8.3l6.2,20.6c1.1,3.6,5,5.7,8.7,4.6l29.8-9c3.7-1.1,5.7-5,4.6-8.7l-6.3-20.6
			C1379.5,2348.3,1377,2346.3,1374.1,2346.2z"/>
		<path class="st51" d="M1338.7,2349.5l1.7,5.6c0.6,2,8.3,1.5,17.3-1.2s15.7-6.5,15-8.6l-1.7-5.6L1338.7,2349.5z"/>
		<path class="st50" d="M1371,2339.7c0.6,2-6.1,5.9-15,8.6s-16.7,3.3-17.3,1.2s6.1-5.9,15-8.6S1370.4,2337.7,1371,2339.7z"/>
		<path class="st52" d="M1298.3,2357.4L1298.3,2357.4c-2-1-1.5-4.5-1.5-4.5l-22.6-3.9c-0.1,1.5-1.1,2.9-2.4,3.5c0,0-4.5,0.6-5.2,4.6
			l-2.8,16.5c-0.5,2.9,1.5,5.7,4.4,6.2l23.8,4.1c2.9,0.5,5.7-1.5,6.2-4.4l2.8-16.5C1301.4,2360.8,1300.3,2358.5,1298.3,2357.4z"/>
		<path class="st46" d="M1272.6,2347.4l-0.8,4.5c-0.3,1.6,5.3,3.9,12.4,5.1s13.1,0.9,13.4-0.7l0.8-4.5L1272.6,2347.4z"/>
		<path class="st45" d="M1298.4,2351.8c-0.3,1.6-6.3,1.9-13.4,0.7s-12.7-3.5-12.4-5.1s6.3-1.9,13.4-0.7S1298.7,2350.2,1298.4,2351.8
			z"/>
		<rect x="1226.4" y="2364.1" class="st43" width="139.8" height="115.3"/>
		<rect x="1296.3" y="2364.1" class="st17" width="139.8" height="115.3"/>
		<polygon class="st20" points="1296.3,2364.1 1436.5,2364.1 1436.5,2404.2 1296.3,2421.7 		"/>
		<polygon class="st17" points="1296.3,2364.1 1324,2394.4 1461.9,2394.4 1436.1,2364.1 		"/>
		<polygon class="st17" points="1226.5,2450.1 1248.7,2450.1 1246.7,2443.9 1248.7,2439.4 1226.5,2439.4 		"/>
		<polygon class="st46" points="1296.3,2377.1 1266.9,2406.6 1226.5,2406.6 1226.5,2364.1 1296.3,2364.1 		"/>
		<polygon class="st17" points="1226.4,2364.1 1195,2394.4 1264.9,2394.4 1296.3,2364.1 		"/>
		<path class="st53" d="M1054.9,1837.2c-141-26.1-224,140.7-238.3,161.4c-14.3-20.7-97.3-187.4-238.3-161.4
			c-155.5,28.8-222.4,175.5-163.7,318.7c47.9,116.7,357.3,303.5,399.8,325.8v2.3l2.2-1.1l2.2,1.1v-2.3
			c42.5-22.2,347-211.2,399.8-325.8C1277.5,2028.1,1210.4,1866,1054.9,1837.2z"/>
		<path class="st19" d="M620.8,2168.6c-2.5,6.2-19.3,4.5-32.3-4.3s-31.4-16.8-41.9-24.1c-7.9-5.4-16-25.6-22.3-38.1
			c-1.3-2.7-2.7-5.2-4.3-7.7c-7.6-2.3-7.1-10.1-14.2-12.7c-8.4-2.9-5.8-7.6-5.8-7.6c4.3-1.6,8.8-2.2,13.3-1.8c2.6,0.4,7.9,8,11,12.8
			c2.9,2.2,6.4,5.1,10.1,8.5c10.1,9,21.6,20.6,26.2,26.4c5.3,6.7,40,14,49.4,21.7C626.8,2155.2,620.8,2168.6,620.8,2168.6z"/>
		<path class="st19" d="M560.8,2263.9l36.3,201.7l12.6,0.8c0,0,9.9-87.8,1.4-118.1s14.6-68.7,8.1-95S560.8,2263.9,560.8,2263.9z"/>
		<path class="st14" d="M602.6,2152.5l-31.7-5.2c-1.5-5.1-1.9-12.2-2-18.5c0-7.8,0.6-14.3,0.6-14.3l25.6-2.5l11.4-1.1
			C600.2,2122.9,602.6,2152.5,602.6,2152.5z"/>
		<path class="st19" d="M603.5,2117.3c0,0-16.9,14.4-34.6,11.6c0-7.8,0.6-14.3,0.6-14.3l25.6-2.5L603.5,2117.3z"/>
		<path class="st14" d="M585,2313.6c-6.4,17.9-12.2,36.1-9.3,51c0.9,4.5,1.4,9,1.6,13.6c0.2,4.3,0.3,8.6,0.1,13
			c-1.4,35.2-14.8,71-16.9,76.4l-0.3,0.7l-11.1-1.3l-4.8-211.6c0,0,50.9-20.5,53.7,6.4C599.5,2275.7,591.9,2294.5,585,2313.6z"/>
		<path class="st15" d="M615.4,2325.6c0,0-3.3,0.5-8.1,1c-9.1,1-23.7,2.2-32.7,0.8c-4.3-0.7-6.7-7.8-7.8-17.3
			c-2.5-21.1,1.2-54.2,4.7-55.7c5-2.1,48.9-0.3,48.9-0.3S629.9,2277.8,615.4,2325.6z"/>
		<path class="st16" d="M608,2326.6c-9.1,1-23.7,2.2-32.7,0.8c-4.3-0.7-6.7-7.8-7.8-17.3l24.1-39.4l18.1-7.1
			C609.6,2263.6,616.9,2293.8,608,2326.6z"/>
		<path class="st15" d="M544.2,2254.7c0,0-9.5,41.8-8,74.9c0,0,21.5,4.3,43.5,0c0,0,36.4-52.9,33.3-69.9S553.4,2249.3,544.2,2254.7z
			"/>
		<path class="st14" d="M561.4,2109.5c0,0,29.6,23.4,43.9,4.8s27.8-28.2,9.5-43.9s-27.5-11.5-33.7-6.4S554.1,2102.9,561.4,2109.5z"
			/>
		<path class="st16" d="M635.8,2077.4c-1.2-0.3-2.4-0.3-3.5,0l0,0c2.4-4.4,0.6-11.3,0.6-11.3c0.6,3.8-2.8,8.2-2.8,8.2
			c-0.2-13.9-34.6-22.5-37.8-23.4s-2.8-6.2-2.8-6.2c-6.6,1.3-13.5,9.7-13.3,17.9s7,23.8,11.3,24.1s2.4,3.8-0.6,8.6
			s0.9,18.1,6.3,22.7c4.3,3.7,6.6,0.6,9.1-0.8c0.6-0.3,1.3-0.6,2-0.8c10-2.2,20.5-12.1,25.7-24.8c1.6-4,2.4-8.3,2.3-12.6
			C633.4,2078.4,634.6,2077.8,635.8,2077.4z"/>
		<path class="st54" d="M611.4,2480.3h-7c-2.3-0.3-4.1-0.9-6.5-1.2c-3.7-0.4-5.3,0.9-5.7,1.2l-0.1,0.1h-29.9c-0.8-0.9,0-3.1,0.7-4.8
			c0.5-1.1,1.6-2,2.8-2.3c3.2-0.8,9.4-1.5,15.1-6.1c3.2-2.6,15.5-9.4,15.5-9.4h0.1c0.3,0,1.5,0.4,7.2,4.5c2.9,2.2,7.8-3,7.8-3
			c0.7,0.5,1.2,1.2,1.6,1.9c0.7,1.2,0.9,2.7,0.6,4.1c-0.4,2.4,1,6.8,2.1,9.8c0.7,1.8,1.3,3.1,1.3,3.1S617.5,2479.7,611.4,2480.3z"/>
		<path class="st55" d="M613.1,2461.3c-1.7,1.1-5.2,3.1-7.6,3.4c-3.2,0.4-9.1-6.8-9.1-6.8h0.1c0.3,0,1.5,0.4,7.2,4.5
			c2.9,2.2,7.8-3,7.8-3C612.1,2459.9,612.7,2460.5,613.1,2461.3z"/>
		<path class="st55" d="M611.4,2480.3h-7c-2.3-0.3-4.1-0.9-6.5-1.2c-3.7-0.4-5.3,0.9-5.7,1.2l-0.1,0.1h-29.9c-0.8-0.9,0-3.1,0.7-4.8
			c0.9-0.7,1.2,3.1,1.7,3.7s24.3,0.2,25.7-0.7s5.5-2.4,11.3-1.2c5,1.1,12.4-1.6,14.2-2.4c0.7,1.8,1.3,3.1,1.3,3.1
			S617.5,2479.7,611.4,2480.3z"/>
		<path class="st54" d="M563.4,2480.3h-7c-2.3-0.3-4.1-0.9-6.5-1.2c-3.7-0.4-5.3,0.9-5.7,1.2l-0.1,0.1h-29.9c-0.8-0.9,0-3.1,0.7-4.8
			c0.5-1.1,1.6-2,2.8-2.3c3.2-0.8,9.4-1.5,15.1-6.1c3.2-2.6,15.5-9.4,15.5-9.4h0.1c0.3,0,1.6,0.4,7.2,4.5c2.9,2.2,7.8-3,7.8-3
			c0.7,0.5,1.2,1.2,1.6,1.9c0.7,1.2,0.9,2.7,0.6,4.1c-0.4,2.4,1,6.8,2.1,9.8c0.7,1.8,1.3,3.1,1.3,3.1S569.5,2479.7,563.4,2480.3z"/>
		<path class="st55" d="M565.1,2461.3c-1.7,1.1-5.2,3.1-7.6,3.4c-3.2,0.4-9.1-6.8-9.1-6.8h0.1c0.3,0,1.6,0.4,7.2,4.5
			c2.9,2.2,7.8-3,7.8-3C564.1,2459.9,564.7,2460.5,565.1,2461.3z"/>
		<path class="st55" d="M563.4,2480.3h-7c-2.3-0.3-4.1-0.9-6.5-1.2c-3.7-0.4-5.3,0.9-5.7,1.2l-0.1,0.1h-29.9c-0.8-0.9,0-3.1,0.7-4.8
			c0.9-0.7,1.2,3.1,1.7,3.7s24.3,0.2,25.7-0.7s5.5-2.4,11.3-1.2c5,1.1,12.4-1.6,14.2-2.4c0.7,1.8,1.3,3.1,1.3,3.1
			S569.5,2479.7,563.4,2480.3z"/>
		<path class="st24" d="M626.5,2263.6c0,0-28.4,8.3-63,2.4c-6.3-1.1-17.4-4.2-25.3-8.6l10.4-82.9l2.1-38.5c0,0,11.9-3.7,17.7-4
			c0,0,24.2,2.9,33.6,0.4c0,0,13.5,2.8,17.3,15.4C627.4,2174.1,630.1,2206.8,626.5,2263.6z"/>
		<path class="st14" d="M570.4,2168.6c-2.6,6.2-19.4,4.5-32.3-4.3c-1.1-0.8-2.3-1.5-3.5-2.3c-12.6-7.9-28.9-15.2-38.5-21.9
			c-9-6.2-18.5-32-24.9-43.1c-0.5-0.9-1.1-1.9-1.7-2.7c-7.5-2.4-7-10.1-14.1-12.7c-8.4-2.9-5.9-7.6-5.9-7.6
			c4.3-1.6,8.8-2.2,13.3-1.8c2.7,0.4,8,8,11,12.8c2.1,1.6,4.6,3.6,7.2,5.7c10.7,9.3,24.1,22.8,29.1,29.1c3.8,4.8,22.8,10,36.7,15.2
			c5.5,2.2,10.1,4.3,12.8,6.5C576.4,2155.2,570.4,2168.6,570.4,2168.6z"/>
		<path class="st24" d="M570.4,2168.6c-2.8,12.9-35.6-2.8-36.8-3.5c1.8-19.3,1.5-29.9,7-33.3c10.7-1.7,26.8-0.9,30,0.3
			C596.7,2141.5,570.4,2168.6,570.4,2168.6z"/>
		<path class="st56" d="M534.5,2093.4c-1.1,3.1-3.9,6.7-10.1,8.5c-1.3-2.7-2.7-5.2-4.3-7.7c-7.6-2.3-7.1-10.1-14.2-12.7
			c-8.4-2.9-5.8-7.6-5.8-7.6c4.3-1.6,8.8-2.2,13.3-1.8c2.6,0.4,7.9,8,11,12.8C527.3,2087.1,530.8,2090.1,534.5,2093.4z"/>
		<path class="st24" d="M517.1,2085.7c-2.8,2.2-10.4,9.9-10.4,9.9l-17.5-22.6c0,0,8.9-5.6,11.9-7.9c2.7-2.1,10.7-9.6,10.7-9.6
			l17.5,22.6C529.3,2078.1,519.9,2083.5,517.1,2085.7z"/>
		<path class="st24" d="M517.1,2085.7c-2.8,2.2-10.4,9.9-10.4,9.9l-12.3-15.9c0,0,9-5.7,11.9-7.9c2.7-2.1,10.7-9.6,10.7-9.6
			l12.3,15.9C529.3,2078.1,519.9,2083.5,517.1,2085.7z"/>
		
			<rect x="520.2" y="2051.7" transform="matrix(0.791 -0.6118 0.6118 0.791 -1155.0286 750.74)" class="st24" width="2.3" height="28.6"/>
		
			<rect x="495.8" y="2070.6" transform="matrix(0.791 -0.6118 0.6118 0.791 -1171.6958 739.7454)" class="st24" width="2.3" height="28.6"/>
		<path class="st57" d="M483.5,2075.9l-23.3,28.6c-2.8,3.4-7.8,3.9-11.2,1.1l-11.7-9.6c-3.6-2.9-4.1-8.2-1.2-11.8l23.1-28.3
			c3.8-4.7,10.1-6.6,15.9-5c0.8,0.2,1.6-0.1,2-0.7c0.1-0.2,0.3-0.4,0.4-0.6l1.2-1.5l8.7,7.1l-1.2,1.5c-0.2,0.2-0.3,0.4-0.5,0.6
			c-0.5,0.5-0.7,1.2-0.4,1.8C488.1,2064.6,487.4,2071.2,483.5,2075.9z"/>
		<path class="st58" d="M483.5,2075.9l-23.3,28.6c-2.8,3.4-7.8,3.9-11.2,1.1l-7.4-6c-3.6-2.9-4.1-8.2-1.2-11.8l23-28.3
			c3.8-4.7,10.1-6.6,15.9-5c0.3,0.1,0.6,0.1,0.8,0c0.5-0.1,0.9-0.4,1.1-0.8c0.1-0.2,0.2-0.4,0.4-0.6l1.2-1.5l4.4,3.6l-1.2,1.5
			c-0.2,0.2-0.3,0.4-0.5,0.6c-0.5,0.5-0.7,1.2-0.4,1.8C488,2064.6,487.4,2071.2,483.5,2075.9z"/>
		<path class="st58" d="M478.7,2072l-23.3,28.6c-2.8,3.4-7.8,3.9-11.2,1.1l-2.5-2.1c-3.6-2.9-4.1-8.2-1.2-11.8l23-28.3
			c3.8-4.7,10.1-6.6,15.9-5c0.3,0.1,0.6,0.1,0.8,0c0,0.2,0,0.5,0.2,0.7C483.2,2060.7,482.5,2067.3,478.7,2072z"/>
		
			<rect x="451.6" y="2061" transform="matrix(0.6323 -0.7747 0.7747 0.6323 -1438.9166 1121.8621)" class="st59" width="21.7" height="31.5"/>
		
			<rect x="482.4" y="2044.2" transform="matrix(0.6308 -0.7759 0.7759 0.6308 -1412.3726 1132.4288)" class="st59" width="3" height="12.5"/>
		<path class="st56" d="M481.1,2090.7c-1.7,2.5-4.7,4.8-9.9,6.3c-0.5-0.9-1.1-1.9-1.7-2.7c-7.5-2.4-7-10.1-14.1-12.7
			c-8.4-2.9-5.9-7.6-5.9-7.6c4.3-1.6,8.8-2.2,13.3-1.8c2.7,0.4,8,8,11,12.8C475.9,2086.6,478.5,2088.6,481.1,2090.7z"/>
		<path class="st60" d="M358.6,2050.4l-1.6,11.4c0,0-0.8,0-2.1-0.1c-4.1-0.3-14.2-0.9-25.5-2.1c-17.1-1.7-37.4-4.7-45.4-9.7
			c-12.3-7.5-32.5-30.5-45.6-53.5c-0.4-0.5-0.7-1.1-0.9-1.7c-6.9-12.2-11.6-24.3-12-34c-0.3-5.2,0.2-10.4,1.6-15.4
			c1.4-5,3.8-9.8,7-13.9c0.4-0.6,0.8-1.1,1.3-1.6c2.5-3.1,5.5-5.6,8.9-7.6c2.3-0.9,4.7,0.2,7.2,2.9v0.1c2.6,2.9,4.8,6.1,6.5,9.6
			c0.1,0.1,0.2,0.2,0.2,0.3c0.5,0.8,0.9,1.8,1.5,2.8c0.2,0.2,0.3,0.4,0.4,0.7c1,2.2,2.1,4.4,3.1,6.8c11.5,25.2,23.9,63.3,34.1,74.7
			c4.4,4.9,24.6,14.5,40.7,21.6C349.3,2046.7,358.6,2050.4,358.6,2050.4z"/>
		<path class="st16" d="M205.9,1800c0,0-3.5-18.2-23.1-19.1s-42.6,14.6-40.7,35s-20.1,28.8-24,45.9s14.6,17.2,18.5,30.4
			s-7,25.2,16.9,26.2s51.3-3,56.9-16.4s8.6-67.6,8.6-67.6L205.9,1800z"/>
		<path class="st61" d="M239.8,1985.3c-1.1,5.8-2.8,11.4-5.3,16.8c-1.9,4.3-4,8.3-6.2,12.6c-6.5,12.4-20.8,18.2-22.2,42.5
			c-0.5,8.4,0.6,19,4,32.8c17,68.2-117,10.1-109.5-7.6c15.1-35.1,35.4-54.9,36.1-84.3c0-0.1,0-0.1,0-0.2c-0.1-1.4-0.1-5.2-0.1-10.3
			c-0.1-12.3,0-32,0.1-41.9c0-0.2,0-0.5,0-0.7c0.1-4.3,0-7.3-0.1-8.2c11-40,32.8-39.3,40.3-38.9c2.8,0.1,5.6,0.4,8,0.7
			c4.8-2.5,13.3-14.6,18.3-34.8l1.7,0.8l28.1,13.2c0,0-3,9.2-5.2,17.9c-1.7,6.9-3,13.5-1.9,15.3c2.2,0.9,3.5,1.5,3.5,1.5l0,0
			C230,1913.7,245.6,1953.4,239.8,1985.3z"/>
		<path class="st15" d="M235.7,2461.4l-10.3,5.4c0,0-56-77.2-62.6-143c-1.2-11.7-0.8-23.1,1.8-33.6c0,0-1.1-6.5-3-17.2
			c-0.4-2.1-0.8-4.4-1.2-6.9c-1.6-9.1-3.5-20.2-5.7-32.5c-2.1-12.1-4.5-25.4-6.9-39c-4.8-26.7-9.8-54.4-14-76.9l3.4-1.1l15.3-4.9
			l20.9-6.7l7.5-23.7l4.9-1.3l22.1-5.8c1,2.5,1.9,5.1,2.4,7.7c2,7.7,4.9,22.2,7.8,48.3c0.4,3.6,0.8,7.4,1.2,11.4
			c4,29.5,6.4,71.3,0,121.4c-1.2,9.7-2.8,19.6-4.7,29.9c-1.4,7.5-1.6,17.8-1,29.5C215.9,2376.1,235.7,2461.4,235.7,2461.4z"/>
		<path class="st16" d="M217.8,2130.1c-14.4,34.3-45.6,107.9-57.5,135.9c-1.6-9.1-3.5-20.2-5.7-32.5c-2.1-12.1-4.5-25.4-6.9-39
			l-5.4-57.1l10.1-25.8l12.8-32.9c0,0,9.6,0.5,20.4,1.1c8.9,0.6,18.7,1.2,24.5,1.9C212,2089.4,214.9,2104,217.8,2130.1z"/>
		<path class="st17" d="M381.6,2080.9c-4.9,4.3-25.5-17.2-27.3-19.2c-4.1-0.3-14.2-0.9-25.5-2.1c3.6-5.8,6.9-14.2,8.4-18
			c11.5,5.1,20.9,8.8,20.9,8.8s17.6,2.9,20.3,5.9C385.8,2064.5,387,2076.3,381.6,2080.9z"/>
		<path class="st62" d="M376.2,2065c-3.5,0-72.8-3.5-72.8-3.5l48.1,51.3l105.6,22.5L376.2,2065z"/>
		<path class="st17" d="M424.1,2130.6c-2.3,7-6.3,28.9-6.3,28.9l-55.9-18.3c0,0,8.7-19.9,11.1-27.3c2.2-6.7,7.1-28.6,7.1-28.6
			l55.8,18.3C436,2103.6,426.4,2123.6,424.1,2130.6z"/>
		<path class="st20" d="M424.1,2130.6c-2.3,7-6.3,28.9-6.3,28.9l-39.4-12.9c0,0,8.7-19.9,11.1-27.3c2.2-6.7,7.1-28.6,7.1-28.6
			l39.3,12.9C436,2103.6,426.4,2123.6,424.1,2130.6z"/>
		
			<rect x="408.4" y="2061.6" transform="matrix(0.3102 -0.9507 0.9507 0.3102 -1704.4849 1832.8573)" class="st20" width="4.7" height="58.7"/>
		
			<rect x="388.8" y="2122" transform="matrix(0.3102 -0.9507 0.9507 0.3102 -1775.411 1855.7684)" class="st63" width="4.7" height="58.7"/>
		<path class="st64" d="M434.6,2115l20.2,30.9c2.4,3.7,1.3,8.6-2.3,11l-12.7,8.3c-3.9,2.5-9.1,1.4-11.6-2.4l-19.9-30.5
			c-3.3-5.1-3.3-11.6,0-16.7c0.4-0.6,0.4-1.5-0.1-2.1c-0.1-0.2-0.3-0.3-0.4-0.5l-1.1-1.6l9.4-6.1l1.1,1.6c0.1,0.2,0.3,0.4,0.4,0.7
			c0.3,0.6,1,1,1.6,0.9C425.2,2107.3,431.3,2109.9,434.6,2115z"/>
		<path class="st65" d="M434.6,2115l20.2,30.9c2.4,3.7,1.3,8.6-2.3,11l-8,5.2c-3.9,2.5-9.1,1.4-11.6-2.4l-19.9-30.6
			c-3.3-5.1-3.3-11.6,0-16.6c0.2-0.2,0.2-0.5,0.3-0.8c0.1-0.5-0.1-0.9-0.4-1.3c-0.1-0.2-0.3-0.4-0.4-0.5l-1.1-1.6l4.7-3.1l1.1,1.6
			c0.1,0.2,0.3,0.4,0.4,0.7c0.3,0.6,1,1,1.6,0.9C425.2,2107.2,431.3,2109.9,434.6,2115z"/>
		<path class="st66" d="M429.4,2118.4l20.2,30.9c2.4,3.7,1.3,8.6-2.3,11l-2.7,1.8c-3.9,2.5-9.1,1.4-11.6-2.4l-19.9-30.5
			c-3.3-5.1-3.3-11.6,0-16.6c0.2-0.2,0.2-0.5,0.3-0.8c0.2,0.1,0.5,0.1,0.7,0.1C420,2110.6,426.1,2113.3,429.4,2118.4z"/>
		
			<rect x="413.4" y="2124.4" transform="matrix(0.8375 -0.5464 0.5464 0.8375 -1096.9651 581.4017)" class="st59" width="31.5" height="21.7"/>
		
			<rect x="404.2" y="2105.4" transform="matrix(0.8365 -0.548 0.548 0.8365 -1087.4688 569.4481)" class="st59" width="12.5" height="3"/>
		<path class="st64" d="M365.1,2101.9l7.5,36.1c0.9,4.3-1.9,8.5-6.2,9.4l-14.8,3.1c-4.5,0.9-9-2-9.9-6.5l-7.4-35.7
			c-1.2-5.9,1.2-12,6.1-15.5c0.6-0.4,0.9-1.3,0.7-2c-0.1-0.2-0.1-0.4-0.2-0.6l-0.4-1.9l11-2.3l0.4,1.9c0,0.2,0.1,0.5,0.1,0.8
			c0,0.7,0.5,1.3,1.2,1.4C359.2,2091.2,363.9,2095.9,365.1,2101.9z"/>
		<path class="st65" d="M365.1,2101.9l7.5,36.1c0.9,4.3-1.9,8.5-6.2,9.4l-9.3,1.9c-4.5,0.9-9-2-9.9-6.5l-7.4-35.7
			c-1.2-5.9,1.2-12,6.1-15.5c0.2-0.2,0.4-0.4,0.5-0.6c0.2-0.4,0.3-0.9,0.1-1.4c-0.1-0.2-0.1-0.4-0.2-0.6l-0.4-1.9l5.5-1.1l0.4,1.9
			c0,0.2,0.1,0.5,0.1,0.8c0,0.7,0.5,1.3,1.2,1.4C359.2,2091.2,363.9,2095.9,365.1,2101.9z"/>
		<path class="st66" d="M359,2103.1l7.5,36.1c0.9,4.3-1.9,8.5-6.2,9.4l-3.2,0.7c-4.5,0.9-9-2-9.9-6.5l-7.4-35.7
			c-1.2-5.9,1.2-12,6.1-15.5c0.2-0.2,0.4-0.4,0.5-0.6c0.2,0.2,0.4,0.3,0.6,0.3C353,2092.5,357.7,2097.2,359,2103.1z"/>
		
			<rect x="336.9" y="2107.9" transform="matrix(0.9792 -0.2028 0.2028 0.9792 -422.3313 115.5237)" class="st20" width="31.5" height="21.7"/>
		
			<rect x="339.4" y="2084" transform="matrix(0.9788 -0.2047 0.2047 0.9788 -419.5163 114.8838)" class="st20" width="12.5" height="3"/>
		<path class="st67" d="M493.4,2340.4l-11.9,75.9l-3.5,21.9l-6.9,43.9h-92.8c0,0-12.2-7.5-28.1-17.4c-27-17-64.4-40.6-68.2-44.9
			c-2.4-2.7-6.7-23.2-10.8-46.3c-5.8-33-11.5-71.4-11.5-71.4l34-63.5l-29.3-70.1l38.7-106.9l48.1,51.3l105.7,22.4L493.4,2340.4z"/>
		<polygon class="st67" points="355.5,2326.4 344.9,2386.3 424.1,2331.1 		"/>
		<path class="st67" d="M481.3,2416.2L471,2482h-92.8c0,0-12.2-7.5-28.1-17.4l-7.7-22.6l89.2-40.5l10.7-0.6L481.3,2416.2z"/>
		<path class="st68" d="M493.4,2340.4l-11.9,75.9l-3.5,21.9c-6-3-47.9-24.6-46.2-36.6C433.6,2388.6,493.4,2340.4,493.4,2340.4z"/>
		<path class="st68" d="M282.1,2419.7c0,0,56.3,17,60.5,22.3s15.8,27.6,15.8,27.6L282.1,2419.7z"/>
		<path class="st68" d="M355.5,2326.4c0,0,44.6-12.9,48.7-18.8S437,2266,437,2266s-7.6,58.1-12.9,65.1S355.5,2326.4,355.5,2326.4z"
			/>
		<path class="st62" d="M318.9,2284.3l-47.6,89.1c-5.8-33-11.5-71.4-11.5-71.4l27-31.7L318.9,2284.3z"/>
		<path class="st68" d="M318.9,2284.3c0,0-25.8-10.1-59.1,17.6l34-63.5L318.9,2284.3z"/>
		<polygon class="st68" points="264.6,2168.4 343.1,2188.9 376,2239 		"/>
		<polygon class="st62" points="344.9,2386.3 342.6,2442 431.8,2401.5 493.4,2340.4 437,2266 410,2337.6 		"/>
		<path class="st16" d="M258.5,1820.1c0,0-7.6-27.2-29.4-29.8s-35.6,10.5-38.5,23.2s-0.8,46.1,12.7,50.2S258.5,1820.1,258.5,1820.1z
			"/>
		<path class="st15" d="M195.8,2089l-1.4-11.6c-22.7,6-83.3-16.8-83.3-16.8s-22,19.3-19.1,65.6c1.4,22.6,2.3,60.9,2.3,60.9l0,0
			c-0.1,32.9,2.4,65.5,4.3,86.1c1,10.3,1.8,17.6,2.2,20.6l0,0c0.1,0.9-0.2,1.8-0.7,2.5c-4,6.7-7.7,13.5-9.9,20.9
			C74.8,2368.4,87,2447,87,2447l15.3,23.8c0,0,17.3-96.3,31.4-138.9c2.4-7.2,4.7-12.9,6.8-16.3c6.1-9.9,11.8-26,16.9-45.2
			C167.1,2234.4,195.8,2089,195.8,2089z"/>
		<path class="st60" d="M233.1,1877.8c0,0-3,9.2-5.2,17.9c-16.4-4.6-21.4-21.9-22.9-31.1L233.1,1877.8z"/>
		<path class="st61" d="M236.6,1887.5c0,0-39.3-9.1-33.3-33.5s5-42,30.4-37.3s27.9,15.3,27.9,23.9S246.9,1889.2,236.6,1887.5z"/>
		<path class="st16" d="M263.8,1826.8c-4.2-8.8-9.2-8.4-12.3-6.8c-18.5-17.1-36.6-3.1-36.6-3.1c-4.4,10.2-12.2,18.6-22.1,23.8
			c0,0,6.1,6.2,23.6,6.1c5.4,0,10.7-2.5,15.6-5.9c-6.1,6-13,11.2-20.5,15.3c21.9-4.2,36.6-29.6,38.2-32.3c1.9,2.7,5.4,8.6,5.7,13.5
			c0.4,6.7-1.9,19.7,1.9,20.2C257.2,1857.5,270.1,1840,263.8,1826.8z"/>
		<path class="st69" d="M252.2,1924.5c0,0,9.5,16.5,10.9,20.8c0,0-12.3-0.5-17.3,9C245.8,1954.3,246.2,1926.9,252.2,1924.5z"/>
		<path class="st69" d="M248.9,1973.8c-0.3,0.8-0.6,1.5-1,2.3c-9.9,21.3-18.9,39-18.9,39c-0.2-0.2-1.4,78.8-13.4,81.9
			c-6.7,1.7-26,4.3-39.7,5.2c-6.7,0.4-25,1.5-41.8,0c-21.2-1.9-33.3-6.7-41.3-14c-9.6-12.8,34.8-54.9,40.9-85.2
			c-0.1-1.6,0.2-6.7,0.6-13.3c0.8-12.1,2-29.4,2.4-39.9c0.1-1.6,0.1-3,0.1-4.3c0-0.2,0-0.5,0-0.7c2.1-1.6,4.2-3.1,6.1-4.5
			c6.2-4.5,10.8-8.4,11.1-13.3c0.1-2,0.1-4-0.2-5.9c-0.1-0.9-0.2-1.9-0.4-2.8c-1.1-6.5-3-12.8-5.6-18.9c10.4-4.2,29.1-1.7,29.1-1.7
			s0,1,0,2.7c-0.1,6.8,0,24.3,2.2,27.6c2.7,4.1,52.6,22.1,55.2,16.6s-4.5-31.2-4.8-32.2l0,0c16.7,6.5,22.7,12,22.7,12
			C242.1,1931.1,256.7,1953.2,248.9,1973.8z"/>
		<path class="st69" d="M179.9,2050.4c-13.1-6.1-32.9-37.8-45.6-60.5c0.8-12.1,2-29.4,2.4-39.9L179.9,2050.4z"/>
		<path class="st60" d="M277.7,2068.9l-3.3,12c0,0-4.1-0.8-10.7-2c-2-0.4-3.1-0.6-3.1-0.6c-5.3-1-11.6-2.4-18.4-4h-0.1
			c-11.7-2.8-24.9-6.2-36-9.9c-7.8-2.7-14.6-5.6-19.1-8.5c-0.5-0.3-0.9-0.6-1.3-0.9c-11-8-24-31.5-34.2-56.6c-1.4-3.5-2.7-7-4-10.3
			c-4.4-11.6-8-23.5-10.7-35.7c-1.3-5.6-2.2-11.3-2.5-17c-0.1-1.6-0.2-3.2-0.1-4.8c0.2-27.2,13.7-31,13.7-31
			c0.3-0.1,0.6-0.2,0.9-0.3c2.3-0.4,4.8,1.2,7.3,4.3c3.2,3.8,6.6,10.1,10,17.8c5.4,12.1,11,27.8,16.2,43.4c2.9,8.5,5.7,17.1,8.5,25
			c1.6,4.8,3.2,9.3,4.7,13.4c2.9,7.9,5.5,14.3,7.9,18.3c1.5,2.6,5.8,6.3,11.6,10.4c10,7.2,24.5,16,37.2,23.1c5.3,3,10.2,5.7,14.4,8
			C273.3,2066.6,277.7,2068.9,277.7,2068.9z"/>
		<path class="st69" d="M166.1,1921.4c-18.1-5-32,9.1-32,9.1c0.2-27.2,13.8-30.9,13.8-30.9C153.3,1897.3,159.6,1906.8,166.1,1921.4z
			"/>
		<path class="st17" d="M317.2,2080.9c-6,2.5-14.5,11.4-28,6c-8.1-3.1-16.4-5.6-24.9-7.6c-2-0.4-3.1-0.7-3.1-0.7
			c-5.3-1-11.6-2.4-18.4-3.9c5.6-7,8.8-15.8,10-19.4c5.3,3,10.2,5.7,14.4,8c13.6,5.2,21.1,4.5,29.4,2.6c9.3-2.1,24.9,9,24.9,9
			S323.2,2078.4,317.2,2080.9z"/>
		<path class="st21" d="M143.9,2477.3H83.1c0,0-2.3-9.7,1.7-16.3c3.5-5.8,2-12.5,1.3-20.5c2.8,1.1,6.3,4,10.1,4.7
			c3.9,0.6,7.9-0.2,11.3-2.1c2.6,3,9.9,18.4,13.4,20.9C124.9,2466.8,142.6,2465.8,143.9,2477.3z"/>
		<path class="st21" d="M266.3,2477.3h-60.7c0,0-2.3-9.7,1.7-16.3c3.5-5.8,2-12.5,1.3-20.5c2.8,1.1,6.3,4,10.1,4.7
			c4.3,0.7,9.8-2.1,12.6-3.7c1.4,11.8,8.6,20,12.1,22.5C247.4,2466.8,265.1,2465.8,266.3,2477.3z"/>
	</g>
</g>
</svg>
