<svg xmlns="http://www.w3.org/2000/svg" viewBox="0 0 2047.72 848.89"><defs><style>.cls-1{fill:#fefefe;}.cls-2{fill:#1b9cfc;}.cls-3{font-size:451.54px;fill:#fafafa;font-family:AvantGarde-Medium, ITC Avant Garde Gothic;font-weight:500;}</style></defs><g id="Camada_2" data-name="Camada 2"><g id="Camada_1-2" data-name="Camada 1"><path class="cls-1" d="M58.48.23,54.14,4.57Q52.88-1,58.48.23Z"/><path class="cls-1" d="M54.14,616.41l4.34,4.34Q52.87,622,54.14,616.41Z"/><path class="cls-1" d="M927.89,848.57l6-6Q935.69,850.33,927.89,848.57Z"/><path class="cls-2" d="M582.71,490.17c7,20.23-9.92,30.12-22.67,40.44-64.63,52.27-162.49,43.29-236,41.49-131.7-3.21-258.07-19-312.53-149.66-19.24-46.14-12.94-86,8.22-127.66C50,235.21,92.68,195.87,161,184.14c67.29-11.55,131.92,30.71,156.82,94.54,21,53.92-3.45,85.15-60.24,91.62-1.35.15-2.65.93-4.15,1.1-29,3.37-56.66,10-86.17,11.94-19.2,1.25-35.2,1-36.62-22.83-1.49-24.9,11.24-24.39,33.65-26.77,20.47-2.18,42.62-5.81,64.82-8.18,12.17-1.29,29.14-6.36,37.7-16.37,8.28-9.69,4.4-19.18,0-27.93-24.72-49.38-81.24-60.44-126-35.22-46.6,26.27-84,68.28-82.7,122.83C60,449.43,114.5,485.37,188.67,500.69,289.93,521.6,405.17,538.77,508,510.81c3.59-1,12.12-7.66,14.85-10.6-20.27-2.83-43.24-4.89-63.15-7.59-16.56-2.26-30.33-3.68-45.83-7.68-21.8-5.61-42.64-7.14-45.25-33.38-2.82-28.28,22-29.08,41.35-35,47.37-14.4,94.43-19,142.37-28,13.16-2.48,24.89-5,35.13-14.07-10.66-10.39-26.8-8.67-39.6-8.58-36.4.28-70.61,1.43-106.5,1.41-10.48,0-19.32-1.3-30.28-3.53-17.56-3.58-31.2-4.92-36-25.09s11-27.41,24.62-35.08C436,283.17,475.4,273,512.9,259.12c25-9.27,46.6-18.56,70.45-28.85,6-2.57,12.42-6.15,10.82-12.94-2.11-9-10.46-8.51-17.43-7.58-31.29,4.16-56.35,13.35-87.66,21.28-35,8.87-72.88,19.2-110.83,21.46-14.83.89-31.88,3-38.18-15.25-6.53-18.92,5.65-26.7,18.72-37.23,49.79-40.15,104.94-69.35,160.45-100.91,12-6.82,28.74-15.63,38-26.92C541.7,64.57,525.5,69.74,510,74.1c-56,15.68-108.22,43.3-156,74.94-44.61,29.54-48.55,25.36-92.64-.76A726.37,726.37,0,0,1,439.25,47.78c32.24-12.65,66.82-21.53,101.44-23.94,15.17-1.06,29.53-1.84,43.94,3.84,39.2,15.46,44.46,35.74,13.38,67.5-25.25,25.81-62.58,43.27-94.9,61.8-7.13,4.09-18.35,9.75-19.42,19.75,22-2.56,41.95-5.55,64.63-8.49,18.57-2.41,37.65-5.45,57.62,0,18.89,5.18,35.61,15.7,41.46,36.74,5.65,20.33-3.35,34.9-17.95,47.41C604,274.23,578.52,288,547.6,299.3c-9.6,3.52-20.2,8.91-28,16.19,15.16,2.35,32.32,3.86,47.11,6.44,16.92,3,32,4.65,48.14,9.77,20.59,6.52,32.39,14.46,34.82,36.78,2.19,20.22-10.24,28.74-24.52,37.85-31.66,20.18-65.8,25.94-101.52,34-5.62,1.27-12.86.19-15.15,7.44,10.79,10.37,24.08,8.75,37.67,13C564.73,466.56,575.9,470.64,582.71,490.17Z"/><text/><text class="cls-3" transform="translate(756.77 488.62)">elleos</text></g></g></svg>