<svg xmlns="http://www.w3.org/2000/svg" viewBox="0 0 525.76 731.57"><defs><style>.cls-1{fill:#1b9cfc;}.cls-2{fill:#fff;}</style></defs><g id="Camada_2" data-name="Camada 2"><g id="Camada_1-2" data-name="Camada 1"><path class="cls-1" d="M202.89,6.74c5-1.11,10-1.95,15-2.82,9.89-1.72,19.87-2.5,29.87-3.32,5-.41,10,.21,15-.6,5,.3,9.94.43,14.91.77,4,.28,8,.72,12,1.07,11.12,1,22,3.36,32.95,5.36,4.86,1.94,10,2.77,15,4.17,4.6,1.29,9.06,3,13.63,4.37a5.3,5.3,0,0,0,3.49,1.46c4.24,1.7,8.62,3.09,12.83,4.85,4.79,2,9.44,4.37,14.21,6.42a15.56,15.56,0,0,0,6.58,3.23c2.78,2.58,6.32,3.77,9.5,5.7,5.06,3,9.76,6.48,15.07,9,.36.31.64.69,1,1,4.63,3.5,9.37,6.83,14,10.38,1.57,1.2,2.76,2.81,4.67,3.55,3.46,3.18,7,6.28,10.44,9.47,2,1.85,4.13,3.57,6,5.51,3.07,3.09,6,6.29,9,9.49,1.63,1.76,3.07,3.68,4.61,5.51,3.49,4.15,7,8.31,10.41,12.51.71.86,1.17,1.9,1.82,2.8a351.63,351.63,0,0,1,19.1,29.78q6.74,14.61,13.43,29.23,3.17,8.53,6.33,17.07c.19,3.66,1.37,6.91,2.63,10.32,1.44,5.94,2.87,11.87,4.33,17.8.6,5,1.43,10,2,15.07.82,7.16,1.76,14.32,2.46,21.48.31,3.19.34,6.39.44,9.59.16,5,0,10,0,15-1.24,4.94-1.26,9.86-1.31,14.91a67.11,67.11,0,0,0-2.76,14c-1.34,5.31-2.64,10.63-4,15.93-.18.72-.51,1.38-.74,2.08-1.33,4.23-2.42,8.54-3.83,12.75-1.68,5.05-3.43,10.1-5.25,15.1s-4,9.85-5.87,14.82c-.14.38-.22.78-.37,1.16-1.93,5-4.4,9.66-5.82,14.82-2.89,4.31-4.6,9.08-6.67,13.81a16.66,16.66,0,0,0-2.37,5.4,24.15,24.15,0,0,0-4.09,8.15,84.91,84.91,0,0,0-8.23,15.61c-1.25,2.22-2.73,4.64-4,6.79s-2.3,4.21-3.48,6.26c-2.9,5-5.64,10-8.55,14.95-1.31,2.22-2.76,4.33-4.12,6.51-1.55,2.5-3.06,5-4.64,7.48-3.06,4.81-6.29,9.45-8.79,14.59-.46.65-1,1.23-1.45,1.9-2.15,3.27-4.12,6.67-6.24,10-6.1,9.41-12.31,18.73-18.31,28.19,0,0,0,0,0,0-.12.51-.56.75-.84,1.15-1.44,2.05-2.67,4-4.14,6.08s-3.26,4.17-4.18,6.65a126.15,126.15,0,0,0-10,14.88c-.4.7-1,1.28-1.41,2-2.54,3.66-4.83,7.48-7.44,11.11-6.66,9.27-13.07,18.67-19.09,28.37a6.15,6.15,0,0,0-2.23,3.34A50.25,50.25,0,0,0,358,601.73Q347.9,616,337.83,630.35c-.89,1.27-1.65,2.62-2.55,3.89-2.75,3.85-5.53,7.68-8.3,11.53q-10.07,14-20.21,28a.49.49,0,0,0-.27.52A116.29,116.29,0,0,0,296.31,688q-16.81,21.71-33.65,43.4a2.71,2.71,0,0,0-.93.19l-1.89-1.15a312.23,312.23,0,0,0-21-26.83c-1.52-3.23-3.91-5.75-6-8.58a34.56,34.56,0,0,0-5.4-6.83,91.88,91.88,0,0,0-10.11-13.6c-7.29-10.18-14.56-20.33-21.75-30.59-2.54-3.63-4.63-7.52-7.84-10.65a2,2,0,0,0-.92-1.88,2.61,2.61,0,0,1-.86-1.16l0,0c-6.27-9.29-12.34-18.67-19.2-27.53-1.89-4.14-4.95-7.42-7.32-11.27-.86-1.41-1.52-2.79-3-3.74-6.41-9.65-12.94-19.21-19.49-28.77a64.94,64.94,0,0,0-6.31-9.41,32.26,32.26,0,0,1-2.32-3.51,114.14,114.14,0,0,0-9.49-13.5c-1.05-2.51-2.74-4.41-4.32-6.59s-3.08-4.49-4.58-6.75C103.92,510,98,500.79,91.28,492c-1.26-3.48-3.62-6.12-5.66-9.15-.8-1.19-1.66-2.33-2.42-3.55-2.67-4.28-5.21-8.56-7.87-12.87-1.9-3.06-3.85-6-5.76-9.14-1.37-2.25-2.73-4.69-4-7.1-4.9-9.3-9.74-18.75-14.62-28.08-.22-.44-.88-.74-.71-1.28,0,0,0,0,0,0-2.71-5.39-5.5-10.75-8.17-16.15-1.24-2.5-2.34-5.07-3.52-7.58-.8-1.71-1.58-3.42-2.36-5.13-2.24-4.95-4.41-9.93-6.65-14.87-.19-.44-.89-.72-.68-1.27h0c-2-4.75-3.33-9.7-6.07-14.12a.42.42,0,0,0-.06-.57c-1.87-5.07-3.78-9.91-5.63-15s-3.63-10.55-5.46-15.74c-.16-3.25-1.38-6.09-2.42-9.12-.56-1.61-1-3.2-1.48-4.81a85.45,85.45,0,0,0-3.33-14c-.87-4.95-1.7-9.92-2.58-14.87-.09-.51-.5-.95-.57-1.46a9.87,9.87,0,0,1-.06-1.54A53.61,53.61,0,0,0,0,271.51c.05-5,0-10,.08-15,.09-5.73,1.28-11.35.93-17.09q.69-6.85,1.37-13.71a92.12,92.12,0,0,0,2.56-14.47c1.15-5,2.29-9.95,3.46-14.91.1-.4.23-.78.34-1.17,1.21-4.17,2.13-8.44,3.43-12.57,1.72-5.51,3.77-10.9,5.57-16.37q7.25-15.4,14.54-30.78c6.08-9.66,12.07-19.35,18.81-28.57l0,0a3.75,3.75,0,0,1,.88-1.25c.36-.46.72-1.06,1.13-1.55,3.35-4,6.75-8.08,10.11-12.12,0,0,0,0,0,0-.12-.54.53-.87.87-1.23,1.82-1.92,3.61-3.9,5.45-5.81,2.58-2.68,5-5.54,7.65-8.15,2.4-2.37,4.95-4.59,7.45-6.86,3-2.7,6-5.41,9-8.06,1.53-1.34,3.14-2.58,4.76-3.83,4.37-3.36,9-6.38,13-10.21,1.36-.5,2.48-.93,3.22-2.25a118.76,118.76,0,0,0,14.69-9.29c3.13-1.51,6.24-2.78,8.91-5.07,1.71-.8,3.32-1.82,5-2.6,9.92-4.41,19.88-8.7,29.81-13.09,5-1.49,10-3.44,15-4.83S197.86,7.86,202.89,6.74Z"/><path class="cls-1" d="M163.77,211.07l-.7,1.27c-4.49,8.72-8,17.79-9.3,27.58-1.9,5.64-2.28,11.49-2.57,17.37v12a63.77,63.77,0,0,0,2.57,18.36,77.59,77.59,0,0,0,10.16,28.62,43.17,43.17,0,0,0,8.86,14.41.48.48,0,0,0,.27.54c7.61,11.62,17.84,20.4,29.69,27.44a21.56,21.56,0,0,0,7.06,4,24.14,24.14,0,0,0,7.15,3.5c4.89,2.68,10.23,4,15.59,5.32a45.37,45.37,0,0,0,14.28,2.87l.3.16.32-.1c2,1.47,4.27.63,6.43.62,3.63,1,7.3.6,11,.34,4.1,1.19,8.07-.28,12.09-.66A75.26,75.26,0,0,0,291.83,372a1,1,0,0,0,1.26-.58v0a46.2,46.2,0,0,0,14.78-5.11,34.78,34.78,0,0,0,10.52-5.1c2,.07,3-1.78,4.5-2.56,17.34-10.2,30.12-24.64,39.35-42.38,2.36-4.48,4.8-8.92,5.64-14a.44.44,0,0,0,.07-.62,2.54,2.54,0,0,0,.94-2.46,1.57,1.57,0,0,0,.29-.84c2-4.15,2.71-8.63,3.38-13.13.74-4.18,1.84-8.32,1.45-12.63a45.74,45.74,0,0,0,0-17.72c0-10.62-2.74-20.68-6.3-30.57-1.15-4.34-2.5-8.6-5.46-12.13-.07-3-2.23-5.1-3.65-7.45-8.92-14.72-20.31-27-35.39-35.66-1.6-.94-2.68-2.76-4.8-2.8-3.6-2.31-7.27-4.47-11.5-5.45a33.37,33.37,0,0,0-13.08-4.43c-5.71-2.45-11.77-3.12-17.88-3.56-3.68-.47-7.31-1.83-11.09-.65-3.66-.26-7.33-.65-10.95.33-7.27-.38-14.18,1.48-21.08,3.35-5.4,1.52-10.88,2.77-15.85,5.53a24.2,24.2,0,0,0-7.16,3.5,21.49,21.49,0,0,0-7.05,4,94.4,94.4,0,0,0-29.85,27.34,74.48,74.48,0,0,0-9.17,14.83Z"/><path class="cls-2" d="M408.55,378.7c3.57,12-6.63,17.35-14.37,23-39.24,28.82-96.25,20.9-139.2,17.84-77-5.48-150.47-18.18-178.77-96.09C66.21,296,71,272.83,84.5,249c19.31-34,45.37-55.88,85.67-60.88,39.68-4.92,76.35,21.57,89.17,59.6,10.83,32.11-4.34,49.72-37.74,51.95-.8.06-1.58.47-2.46.54-17,1.18-33.43,4.32-50.74,4.63-11.27.21-20.62-.4-20.81-14.36-.19-14.6,7.24-14,20.42-14.74,12-.71,25.1-2.24,38.15-3,7.16-.43,17.22-2.93,22.5-8.55,5.11-5.45,3.1-11.11.77-16.35-13.12-29.56-45.88-37.58-72.76-24-28,14.09-51,37.65-51.74,69.6-1.11,47.19,29.81,69.71,72.79,80.69,58.67,15,125.63,28.19,186.56,14.64,2.13-.47,7.3-4.15,9-5.8-11.78-2.21-25.17-4-36.74-6.17-9.63-1.76-17.64-3-26.61-5.74-12.6-3.88-24.75-5.34-25.56-20.76-.88-16.63,13.64-16.42,25.15-19.33,28.1-7.14,55.77-8.56,84.06-12.52,7.77-1.09,14.7-2.23,20.94-7.27-6-6.37-15.44-5.81-22.94-6.1-21.3-.83-41.35-1.09-62.35-2.08a84.23,84.23,0,0,1-17.62-2.9c-10.17-2.57-18.12-3.73-20.37-15.66s7.21-15.73,15.36-19.85c21.76-11,45.11-15.83,67.43-22.94,14.88-4.75,27.77-9.59,42-15,3.56-1.34,7.44-3.26,6.69-7.28-1-5.31-5.89-5.26-10-4.91-18.42,1.58-33.34,6.28-51.87,10.06-20.74,4.23-43.16,9.25-65.43,9.53-8.7.12-18.73.9-21.92-10-3.3-11.25,4-15.47,12-21.27,30.23-22.14,63.29-37.71,96.63-54.67,7.2-3.66,17.24-8.36,23-14.71-8.9-4.88-18.52-2.29-27.74-.17-33.2,7.65-64.49,22.38-93.3,39.59-26.91,16.07-29.1,13.52-54.18-3A425.12,425.12,0,0,1,336.69,116c19.2-6.53,39.68-10.78,60-11.25,8.91-.2,17.33-.26,25.61,3.45,22.51,10.12,25,22.13,6,39.86-15.48,14.41-37.8,23.61-57.21,33.57-4.29,2.2-11,5.2-11.9,11,12.93-.9,24.69-2.11,38-3.21,10.93-.91,22.18-2.16,33.71,1.58,10.91,3.55,20.41,10.16,23.26,22.63,2.75,12-2.92,20.33-11.79,27.25-15.49,12.07-30.78,19.42-49.17,25.2-5.72,1.79-12.06,4.66-16.82,8.71,8.8,1.79,18.8,3.14,27.38,5.05,9.83,2.2,18.59,3.6,27.9,7,11.87,4.38,18.56,9.35,19.37,22.47.73,11.89-6.77,16.54-15.38,21.48-19.07,10.94-39.2,13.38-60.32,17.13-3.32.59-7.53-.24-9.07,3.94,6,6.36,13.85,5.77,21.69,8.62C398.68,364.39,405.1,367.09,408.55,378.7Z"/></g></g></svg>