<svg xmlns="http://www.w3.org/2000/svg" viewBox="0 0 1506.14 409.9"><defs><style>.cls-1{font-size:375.19px;fill:#35342f;font-family:DoppioOne-Regular, Doppio One;}.cls-2{fill:#f77d48;}.cls-3{fill:#1b9cfc;}.cls-4{fill:#fff;}</style></defs><g id="Camada_2" data-name="Camada 2"><g id="Camada_1-2" data-name="Camada 1"><text class="cls-1" transform="translate(492.88 318.3)">elleos</text><path class="cls-2" d="M362.54,38.69C331.38,36.62,321.48,69.46,280.11,71c-12,.45-25.69-1.79-32.68,6.89-4.2,5.2-3.69,11.66-11,22.2a70.74,70.74,0,0,1-8.62,10.24,146.74,146.74,0,0,0-38.49-52.77c-12.15-10.5-45.15-42.29-89.81-34C15.75,39.06-20.29,118.1,11.37,195.25c25.8,62.87,192.48,163.54,215.39,175.52l.55.35.64.29,1.19-.62c5.65-3.16,13.48-7.66,22.64-13.32a622.28,622.28,0,0,0,77.9-56.93c59.3-50.67,88.95-76,99.13-106.68,13.67-41.16,8.5-94.61-22.09-128.23C398.12,56.17,383.48,40.08,362.54,38.69Z"/><path class="cls-3" d="M356.34,23.55c-44.17-8.17-78,23.83-89.8,34-8.76,7.58-14.7,11.87-19.11,20.33-3.58,6.85-4.69,13.11-11,22.2a70.74,70.74,0,0,1-8.62,10.24c-.9,1.79-2.37,4.65-4.31,8.08-13.61,23.93-23.49,27.69-30.71,45.79-1.92,4.8-4.67,11.9-4.41,21.25a53.9,53.9,0,0,0,3.87,18.62c5.91,14.67,16.41,20.67,38.79,39.87,28.42,24.39,31.81,32.16,33.4,37.18,3.64,11.45,2.21,22.2,1.08,30.71a96.77,96.77,0,0,1-11.85,34.48,99.16,99.16,0,0,1-12.93,17.78h0s2.82-1.75,2.9-1.81C307.44,322.75,347.46,293,347.46,293c53.69-39.92,80.86-60.64,97.05-97.72,3.81-8.71,9.73-22.59,11.24-41.82C458.54,117.9,445.19,77.81,414.5,51,406.3,43.82,385.94,29,356.34,23.55Z"/><path class="cls-4" d="M239.28,66.44a104.56,104.56,0,0,1-12.07,38.67c-5.28,9.55-13.21,16.66-19.54,25.43-10.15,14.05-19.69,29.88-22.86,47.15-2,11-1.16,22.18,4.56,32,6.88,11.8,18.5,20.45,28.55,29.39,10.82,9.61,22.54,18.8,32.31,29.5,9.48,10.39,13.32,22.95,12.29,36.85A94.73,94.73,0,0,1,232.72,367c-4.71,4.4,2.37,11.46,7.07,7.07,15.7-14.65,25.68-33.31,30.47-54.16,2.72-11.8,3.65-24.35.2-36.11-4-13.58-13.65-23.51-23.94-32.7-11.76-10.52-23.71-20.83-35.35-31.48-9-8.25-17.14-17.51-17.43-30.33-.41-18.75,10.51-36.55,20.9-51.39,7.15-10.22,16.24-18.34,22.13-29.5a117.91,117.91,0,0,0,12.51-42c.73-6.39-9.28-6.33-10,0Z"/></g></g></svg>